<svg id="Layer_1" enable-background="new 0 0 512 512" height="512" viewBox="0 0 512 512" width="512" xmlns="http://www.w3.org/2000/svg"><g><g><g><path d="m412 336h-176c-8.837 0-16-7.163-16-16v-288c0-8.837 7.163-16 16-16h176c8.837 0 16 7.163 16 16v288c0 8.837-7.163 16-16 16z" fill="#a5c3dc"/></g><g><path d="m380 336h-144c-8.837 0-16-7.163-16-16v-288c0-8.837 7.163-16 16-16h144c8.837 0 16 7.163 16 16v288c0 8.837-7.163 16-16 16z" fill="#d7e6f0"/></g><g><path d="m356 312h-96c-8.837 0-16-7.163-16-16v-224c0-8.837 7.163-16 16-16h96c8.837 0 16 7.163 16 16v224c0 8.837-7.163 16-16 16z" fill="#555a6e"/></g><g><path d="m320 40h-24c-2.209 0-4-1.791-4-4 0-2.209 1.791-4 4-4h24c2.209 0 4 1.791 4 4 0 2.209-1.791 4-4 4z" fill="#555a6e"/></g></g><g><g><circle cx="164" cy="352" fill="#d7e6f0" r="16"/></g><g><path d="m164 336v32c8.837 0 16-7.163 16-16s-7.163-16-16-16z" fill="#a5c3dc"/></g><g><path d="m180 240h-32c-61.856 0-112-50.144-112-112 0-61.856 50.144-112 112-112h32c61.856 0 112 50.144 112 112 0 61.856-50.144 112-112 112z" fill="#289bc3"/></g><g><circle cx="148" cy="128" fill="#00d2d2" r="112"/></g><g><circle cx="148" cy="128" fill="#d7e6f0" r="77.333"/></g><g><path d="m196 128c0-1.611-.083-3.203-.242-4.772-.253-2.497 1.001-4.904 3.175-6.159l.006-.003c3.07-1.773 4.122-5.698 2.35-8.769l-9.581-16.595c-1.773-3.07-5.698-4.122-8.769-2.35l-.01.006c-2.173 1.254-4.884 1.137-6.92-.329-2.58-1.859-5.352-3.467-8.281-4.79-2.28-1.03-3.728-3.319-3.728-5.821 0-3.545-2.874-6.419-6.419-6.419h-19.162c-3.545 0-6.419 2.874-6.419 6.419 0 2.502-1.447 4.791-3.728 5.821-2.929 1.323-5.701 2.931-8.281 4.79-2.036 1.466-4.747 1.584-6.92.329l-.01-.006c-3.07-1.773-6.996-.721-8.769 2.35l-9.581 16.595c-1.773 3.07-.721 6.996 2.35 8.769l.006.003c2.174 1.255 3.427 3.662 3.175 6.159-.159 1.569-.242 3.161-.242 4.772s.083 3.203.242 4.772c.253 2.497-1.001 4.904-3.175 6.159l-.006.003c-3.07 1.773-4.122 5.698-2.35 8.769l9.581 16.595c1.773 3.07 5.698 4.122 8.769 2.35l.01-.006c2.173-1.254 4.884-1.137 6.92.329 2.58 1.859 5.352 3.467 8.281 4.79 2.28 1.03 3.728 3.319 3.728 5.821 0 3.545 2.874 6.419 6.419 6.419h19.162c3.545 0 6.419-2.874 6.419-6.419 0-2.502 1.447-4.791 3.728-5.821 2.929-1.323 5.701-2.931 8.281-4.79 2.036-1.466 4.747-1.583 6.92-.329l.01.006c3.07 1.773 6.996.721 8.769-2.35l9.581-16.595c1.773-3.07.721-6.996-2.35-8.769l-.006-.003c-2.174-1.255-3.427-3.662-3.175-6.159.159-1.569.242-3.161.242-4.772z" fill="#a5c3dc"/></g><g><circle cx="148" cy="128" fill="#d7e6f0" r="16"/></g><g><circle cx="116" cy="96" fill="#fff" r="16"/></g><g><path d="m148 240h32v16h-32z" fill="#d7e6f0"/></g><g><path d="m148 240v8h8c4.418 0 8 3.582 8 8h16v-16z" fill="#a5c3dc"/></g><g><path d="m180 352h-32c-4.418 0-8-3.582-8-8v-80c0-4.418 3.582-8 8-8h32c4.418 0 8 3.582 8 8v80c0 4.418-3.582 8-8 8z" fill="#00d2d2"/></g><g><path d="m180 352h-16v-96h16c4.418 0 8 3.582 8 8v80c0 4.418-3.582 8-8 8z" fill="#289bc3"/></g></g><g><g><path d="m284 384h-68.118c-12.73 0-24.939 5.057-33.941 14.059l-17.941 17.941 40 40 19.314-19.314c3.001-3.001 7.07-4.686 11.314-4.686h49.372c13.255 0 24-10.745 24-24 0-13.255-10.745-24-24-24z" fill="#fab991"/></g><g><path d="m399.313 372.686c-6.248-6.249-16.379-6.249-22.627 0l-59.313 59.314h-82.745c-4.243 0-8.313 1.686-11.314 4.686l-19.314 19.314 24 24 16-16h76.687c6.411 0 12.438-2.497 16.97-7.03l61.657-61.657c6.248-6.248 6.248-16.378-.001-22.627z" fill="#f0915a"/></g><g><path d="m284 421.333h-5.333c-4.418 0-8-3.582-8-8v-10.667c0-4.418 3.582-8 8-8h5.333c7.364 0 13.333 5.97 13.333 13.333 0 7.365-5.969 13.334-13.333 13.334z" fill="#f0915a"/></g><g><path d="m161.657 413.657 42.343 42.343-40 40h-96l82.343-82.343c3.124-3.124 8.19-3.124 11.314 0z" fill="#ff6e91"/></g><g><path d="m204 456 26.343 26.343c3.124 3.124 3.124 8.19 0 11.314l-2.343 2.343h-64z" fill="#e64178"/></g></g><g><g><circle cx="396" cy="272" fill="#289bc3" r="80"/></g><g><path d="m396 312c-4.095 0-8.189-1.563-11.313-4.687l-32-32c-6.249-6.248-6.249-16.379 0-22.627 6.248-6.248 16.379-6.248 22.627 0l20.686 20.687 68.687-68.687c6.248-6.248 16.379-6.248 22.627 0 6.249 6.248 6.249 16.379 0 22.627l-80 80c-3.125 3.125-7.219 4.687-11.314 4.687z" fill="#1ef0f0"/></g></g></g></svg>