<svg id="Layer_1" enable-background="new 0 0 256 256" height="512" viewBox="0 0 256 256" width="512" xmlns="http://www.w3.org/2000/svg"><g><g fill="#ebe7f2"><path d="m116.769 162.173c-.277 0-.559-.046-.835-.144-14.373-5.097-24.029-18.772-24.029-34.029 0-14.842 8.901-27.999 22.677-33.519 1.281-.514 2.737.109 3.25 1.391.513 1.281-.109 2.737-1.391 3.25-11.868 4.755-19.536 16.09-19.536 28.877 0 13.145 8.319 24.926 20.7 29.316 1.301.462 1.982 1.891 1.521 3.192-.365 1.026-1.329 1.666-2.357 1.666z"/><path d="m139.231 162.173c-1.029 0-1.993-.64-2.356-1.665-.461-1.301.22-2.73 1.521-3.192 12.382-4.39 20.7-16.171 20.7-29.316 0-12.786-7.668-24.121-19.535-28.876-1.282-.514-1.904-1.969-1.391-3.251.514-1.281 1.97-1.903 3.25-1.391 13.775 5.521 22.676 18.677 22.676 33.518 0 15.257-9.656 28.932-24.028 34.029-.277.097-.559.144-.837.144z"/><path d="m128 186.242c-32.115 0-58.242-26.127-58.242-58.242s26.127-58.242 58.242-58.242 58.242 26.127 58.242 58.242-26.127 58.242-58.242 58.242zm0-111.484c-29.357 0-53.242 23.884-53.242 53.242s23.885 53.242 53.242 53.242 53.242-23.884 53.242-53.242-23.885-53.242-53.242-53.242z"/><path d="m128 208.558c-44.419 0-80.558-36.138-80.558-80.558s36.139-80.558 80.558-80.558c44.42 0 80.558 36.138 80.558 80.558s-36.138 80.558-80.558 80.558zm0-156.116c-41.663 0-75.558 33.895-75.558 75.558s33.895 75.558 75.558 75.558 75.558-33.895 75.558-75.558-33.895-75.558-75.558-75.558z"/></g><path d="m217.546 74.857-88.296-50.978c-.773-.446-1.727-.446-2.5 0l-88.296 50.978c-.773.447-1.25 1.272-1.25 2.165v101.955c0 .893.477 1.718 1.25 2.165l88.296 50.978c.387.223.818.335 1.25.335s.863-.112 1.25-.335l88.296-50.978c.773-.447 1.25-1.272 1.25-2.165v-101.955c0-.893-.477-1.718-1.25-2.165zm-89.546 152.212-85.796-49.535v-96.182l55.449 32.013c.394.228.824.335 1.248.335.864 0 1.705-.449 2.167-1.25.69-1.196.281-2.725-.915-3.415l-55.449-32.013 83.296-48.091 83.296 48.091-55.449 32.013c-1.195.69-1.605 2.219-.915 3.415.463.802 1.304 1.25 2.167 1.25.425 0 .854-.108 1.248-.335l55.449-32.013v96.182z" fill="#846f75"/><path d="m128 142.755c-8.265 0-14.988-6.724-14.988-14.989v-36.902c0-8.265 6.724-14.989 14.988-14.989s14.988 6.724 14.988 14.989v36.902c0 8.265-6.723 14.989-14.988 14.989zm0-61.88c-5.507 0-9.988 4.481-9.988 9.989v36.902c0 5.508 4.481 9.989 9.988 9.989 5.508 0 9.988-4.481 9.988-9.989v-36.902c0-5.508-4.48-9.989-9.988-9.989z" fill="#f9b087"/><path d="m128 180.125c-8.265 0-14.988-6.724-14.988-14.989s6.724-14.988 14.988-14.988 14.988 6.724 14.988 14.988-6.723 14.989-14.988 14.989zm0-24.978c-5.507 0-9.988 4.481-9.988 9.988 0 5.508 4.481 9.989 9.988 9.989 5.508 0 9.988-4.481 9.988-9.989 0-5.507-4.48-9.988-9.988-9.988z" fill="#f9b087"/></g></svg>