<?xml version="1.0" encoding="utf-8"?>
<!-- Generator: Adobe Illustrator 22.1.0, SVG Export Plug-In . SVG Version: 6.00 Build 0)  -->
<svg xmlns="http://www.w3.org/2000/svg" xmlns:xlink="http://www.w3.org/1999/xlink" version="1.1" id="Layer_1" x="0px" y="0px" viewBox="0 0 256 256" style="enable-background:new 0 0 256 256;" xml:space="preserve" width="512" height="512">
<style type="text/css">
	.st0{fill:#FFDF74;}
	.st1{fill:#FCE575;}
	.st2{fill:#FFD551;}
	.st3{fill:#F9BB32;}
	.st4{fill:#FFF4C1;}
	.st5{fill:#DB9C2E;}
	.st6{fill:#FFC34C;}
	.st7{fill:#FFEA63;}
	.st8{fill:#A56021;}
	.st9{fill:#E58D23;}
	.st10{fill:#CCC033;}
	.st11{fill:#99AF17;}
	.st12{fill:#FCDA4F;}
	.st13{fill:#8C4C17;}
	.st14{fill:#BF6C0D;}
	.st15{fill:#FFA730;}
	.st16{fill:#FF624B;}
	.st17{fill:#FCF9DE;}
	.st18{fill:#FFEACF;}
	.st19{fill:#FFD59A;}
	.st20{fill:#EACF32;}
	.st21{fill:#FF4B34;}
	.st22{fill:#FF9079;}
	.st23{fill:#FFB74B;}
</style>
<g>
	<g>
		<g>
			<path class="st6" d="M29.75,22.792h-8v-8c0-2.209,1.791-4,4-4h0c2.209,0,4,1.791,4,4V22.792z"/>
		</g>
	</g>
	<g>
		<g>
			<path class="st23" d="M28.75,12.171c-0.733-0.839-1.798-1.38-3-1.38c-2.209,0-4,1.791-4,4v8h6v-8     C27.75,13.784,28.135,12.874,28.75,12.171z"/>
		</g>
	</g>
	<g>
		<g>
			<path class="st0" d="M32.75,130.917h-14v-108c0-1.105,0.895-2,2-2h10c1.105,0,2,0.895,2,2V130.917z"/>
		</g>
	</g>
	<g>
		<g>
			<path class="st4" d="M20.368,130.917h10.764c0.743,0,1.227,0.782,0.894,1.447l-5.382,10.764c-0.369,0.737-1.42,0.737-1.789,0     l-5.382-10.764C19.141,131.699,19.625,130.917,20.368,130.917z"/>
		</g>
	</g>
	<g>
		<g>
			<path class="st6" d="M26.75,20.917h-6c-1.105,0-2,0.895-2,2v108h6v-108C24.75,21.812,25.645,20.917,26.75,20.917z"/>
		</g>
	</g>
	<g>
		<g>
			<path class="st1" d="M25.474,132.364c-0.332-0.665,0.151-1.447,0.894-1.447h-6c-0.743,0-1.227,0.782-0.894,1.447l5.382,10.764     c0.369,0.737,1.42,0.737,1.789,0l2.106-4.211L25.474,132.364z"/>
		</g>
	</g>
	<g>
		<g>
			<path class="st14" d="M46.75,23.792h14v117.125c0,2.209-1.791,4-4,4h-6c-2.209,0-4-1.791-4-4V23.792z"/>
		</g>
	</g>
	<g>
		<g>
			<path class="st8" d="M52.75,140.917V23.792h-6v117.125c0,2.209,1.791,4,4,4h6C54.541,144.917,52.75,143.126,52.75,140.917z"/>
		</g>
	</g>
	<g>
		<g>
			<path class="st4" d="M227.75,248.167H80.083c-4.418,0-8-3.582-8-8v-224c0-4.418,3.582-8,8-8H227.75c4.418,0,8,3.582,8,8v224     C235.75,244.585,232.168,248.167,227.75,248.167z"/>
		</g>
	</g>
	<g>
		<g>
			<path class="st17" d="M227.75,243.167c-1.657,0-3-1.343-3-3v-87.833c0-1.657,1.343-3,3-3s3,1.343,3,3v87.833     C230.75,241.823,229.407,243.167,227.75,243.167z"/>
		</g>
	</g>
	<g>
		<g>
			<path class="st0" d="M235.917,27.667h-164v-12c0-4.418,3.582-8,8-8h148c4.418,0,8,3.582,8,8V27.667z"/>
		</g>
	</g>
	<g>
		<g>
			<path class="st1" d="M100.083,240.167v-224c0-4.418,3.582-8,8-8h-28c-4.418,0-8,3.582-8,8v224c0,4.418,3.582,8,8,8h28     C103.665,248.167,100.083,244.585,100.083,240.167z"/>
		</g>
	</g>
	<g>
		<g>
			<path class="st2" d="M107.917,7.667h-28c-4.418,0-8,3.582-8,8v12h28v-12C99.917,11.248,103.498,7.667,107.917,7.667z"/>
		</g>
	</g>
	<g>
		<g>
			<path class="st0" d="M184.25,248.333h-172c-2.209,0-4-1.791-4-4v-88c0-2.209,1.791-4,4-4h172c2.209,0,4,1.791,4,4v88     C188.25,246.542,186.459,248.333,184.25,248.333z"/>
		</g>
	</g>
	<g>
		<g>
			<path class="st0" d="M243.75,137.167h-82c-2.209,0-4-1.791-4-4v-42c0-2.209,1.791-4,4-4h82c2.209,0,4,1.791,4,4v42     C247.75,135.376,245.959,137.167,243.75,137.167z"/>
		</g>
	</g>
	<g>
		<g>
			<path class="st16" d="M32.75,43.125h-20v-8.093c0-1.053,0.854-1.907,1.907-1.907H32.75V43.125z"/>
		</g>
	</g>
	<g>
		<g>
			<path class="st4" d="M60.75,23.792h-14l6.106-12.211c0.369-0.737,1.42-0.737,1.789,0L60.75,23.792z"/>
		</g>
	</g>
	<g>
		<g>
			<path class="st16" d="M46.75,132.917h14v8c0,2.209-1.791,4-4,4h-6c-2.209,0-4-1.791-4-4V132.917z"/>
		</g>
	</g>
	<g>
		<g>
			<path class="st21" d="M14.923,86.823h-0.847c-0.733,0-1.327-0.594-1.327-1.327v-50.5c0-1.033,0.838-1.871,1.871-1.871h1.629     v52.371C16.25,86.229,15.656,86.823,14.923,86.823z"/>
		</g>
	</g>
	<g>
		<g>
			<path class="st4" d="M168.5,216.339h-62c-2.209,0-4-1.791-4-4v-22c0-2.209,1.791-4,4-4h62c2.209,0,4,1.791,4,4v22     C172.5,214.549,170.709,216.339,168.5,216.339z"/>
		</g>
	</g>
	<g>
		<g>
			<circle class="st10" cx="182.75" cy="110.923" r="15"/>
		</g>
	</g>
	<g>
		<g>
			<path class="st8" d="M238.25,105.923h-31.5c-1.104,0-2-0.896-2-2s0.896-2,2-2h31.5c1.104,0,2,0.896,2,2     S239.354,105.923,238.25,105.923z"/>
		</g>
	</g>
	<g>
		<g>
			<path class="st8" d="M238.25,119.923h-31.5c-1.104,0-2-0.896-2-2s0.896-2,2-2h31.5c1.104,0,2,0.896,2,2     S239.354,119.923,238.25,119.923z"/>
		</g>
	</g>
	<g>
		<g>
			<circle class="st16" cx="98.75" cy="50.923" r="15"/>
		</g>
	</g>
	<g>
		<g>
			<path class="st8" d="M222.5,45.923h-99.75c-1.104,0-2-0.896-2-2s0.896-2,2-2h99.75c1.104,0,2,0.896,2,2     S223.604,45.923,222.5,45.923z"/>
		</g>
	</g>
	<g>
		<g>
			<path class="st8" d="M222.5,59.923h-99.75c-1.104,0-2-0.896-2-2s0.896-2,2-2h99.75c1.104,0,2,0.896,2,2     S223.604,59.923,222.5,59.923z"/>
		</g>
	</g>
	<g>
		<g>
			<path class="st21" d="M98.75,35.923c-8.284,0-15,6.716-15,15c0,8.284,6.716,15,15,15c0.45,0,0.893-0.029,1.333-0.067V35.991     C99.643,35.952,99.2,35.923,98.75,35.923z"/>
		</g>
	</g>
	<g>
		<g>
			<path class="st2" d="M36.25,244.333v-88c0-2.209,1.791-4,4-4h-28c-2.209,0-4,1.791-4,4v88c0,2.209,1.791,4,4,4h28     C38.041,248.333,36.25,246.542,36.25,244.333z"/>
		</g>
	</g>
	<g>
		<g>
			<circle class="st16" cx="56.609" cy="201.339" r="30"/>
		</g>
	</g>
	<g>
		<g>
			<path class="st21" d="M26.609,201.34c0,8.709,3.714,16.547,9.641,22.028v-44.056C30.323,184.792,26.609,192.631,26.609,201.34z"/>
		</g>
	</g>
	<g>
		<g>
			<path class="st2" d="M185.75,133.167v-42c0-2.209,1.791-4,4-4h-28c-2.209,0-4,1.791-4,4v42c0,2.209,1.791,4,4,4h28     C187.541,137.167,185.75,135.376,185.75,133.167z"/>
		</g>
	</g>
	<g>
		<g>
			<circle class="st16" cx="182.75" cy="110.923" r="15"/>
		</g>
	</g>
	<g>
		<g>
			<path class="st21" d="M182.75,95.923c-8.284,0-15,6.716-15,15c0,8.284,6.716,15,15,15c1.028,0,2.031-0.104,3-0.301V96.225     C184.781,96.028,183.778,95.923,182.75,95.923z"/>
		</g>
	</g>
	<g>
		<g>
			<circle class="st21" cx="47.705" cy="216.167" r="9"/>
		</g>
	</g>
	<g>
		<g>
			<circle class="st2" cx="111.5" cy="17.667" r="9"/>
		</g>
	</g>
	<g>
		<g>
			<path class="st1" d="M54.644,11.581c-0.369-0.737-1.42-0.737-1.789,0L46.75,23.792h6l4-8L54.644,11.581z"/>
		</g>
	</g>
	<g>
		<g>
			<path class="st21" d="M52.75,140.917v-8h-6v8c0,2.209,1.791,4,4,4h6C54.541,144.917,52.75,143.126,52.75,140.917z"/>
		</g>
	</g>
	<g>
		<g>
			<path class="st21" d="M26.75,33.125H14.5c-0.966,0-1.75,0.895-1.75,2v8H25v-8C25,34.02,25.784,33.125,26.75,33.125z"/>
		</g>
	</g>
</g>
</svg>
