<svg id="Bold" enable-background="new 0 0 32 32" height="512" viewBox="0 0 32 32" width="512" xmlns="http://www.w3.org/2000/svg"><path d="m26 32h-20c-3.314 0-6-2.686-6-6v-20c0-3.314 2.686-6 6-6h20c3.314 0 6 2.686 6 6v20c0 3.314-2.686 6-6 6z" fill="#ffe6e2"/><g fill="#fc573b"><path d="m22 8h-12c-1.1 0-2 .9-2 2v10.667c0 1.1.9 2 2 2h4.64l.233-1.333h-4.873c-.367 0-.667-.3-.667-.667v-9.333h13.333v3.173c.413.1.8.313 1.113.627l.22.22v-5.354c.001-1.1-.899-2-1.999-2z"/><path d="m20.833 12.333h-9.667c-.273 0-.5.227-.5.5v3c0 .273.227.5.5.5h8.113l1-1h-8.613v-2h8.667v1.947l.027-.027c.333-.333.667-.533.973-.653v-1.767c0-.273-.226-.5-.5-.5z"/><path d="m18.287 17.327-1.007 1h-6.08c-.273 0-.5-.227-.5-.5s.227-.5.5-.5z"/><path d="m16.28 19.327-.873.873c-.04.04-.08.08-.107.127h-4.1c-.273 0-.5-.227-.5-.5s.227-.5.5-.5z"/></g><path d="m23.658 16.9-.825-.825c-.327-.327-.924-.491-1.532.118l-4.95 4.95c-.072.073-.121.166-.139.267l-.354 2.004c-.029.161.023.325.139.44.095.094.223.146.355.146.029 0 .058-.003.087-.007l2.003-.354c.102-.018.195-.066.267-.139l4.95-4.95c.454-.455.454-1.195-.001-1.65z" fill="#fd907e"/><path d="m20.333 15.28v.053h-.053z" fill="#fd907e"/></svg>