<?xml version="1.0" encoding="utf-8"?>
<!-- Generator: Adobe Illustrator 23.0.1, SVG Export Plug-In . SVG Version: 6.00 Build 0)  -->
<svg version="1.1" id="Layer_1" xmlns="http://www.w3.org/2000/svg" xmlns:xlink="http://www.w3.org/1999/xlink" x="0px" y="0px"
	 viewBox="0 0 540 458" style="enable-background:new 0 0 540 458;" xml:space="preserve">
<style type="text/css">
	.st0{fill:#E0E0E2;}
	.st1{fill:url(#SVGID_1_);}
	.st2{opacity:9.000000e-02;fill:#AAAAE8;}
	.st3{opacity:0.2;fill:#EEEDF3;}
	.st4{fill:#FF3131;}
	.st5{fill:#FF7373;}
	.st6{fill:#010080;}
	.st7{fill:#F8B7B0;}
	.st8{fill:#E49F98;}
	.st9{fill:#77D2FF;}
	.st10{fill:url(#SVGID_2_);}
	.st11{fill:#4003A9;}
	.st12{fill:url(#SVGID_3_);}
	.st13{fill:#EEFAFF;}
	.st14{fill:#EEEDF3;}
	.st15{fill:#C8C7D9;}
	.st16{opacity:0.1;fill:#3F3F3F;}
	.st17{fill:url(#SVGID_4_);}
	.st18{fill:#FFFFFF;}
	.st19{fill:#E2E2E2;}
	.st20{fill:#F8AA00;}
	.st21{fill:#FFBB33;}
	.st22{fill:#ED9E00;}
	.st23{fill:url(#SVGID_5_);}
	.st24{fill:#FFB6EA;}
	.st25{fill:#FF3158;}
	.st26{fill:#FF7D43;}
	.st27{fill:url(#SVGID_6_);}
	.st28{fill:url(#SVGID_7_);}
	.st29{fill:#3301A0;}
	.st30{fill:#FAC14D;}
	.st31{fill:#5439F8;}
	.st32{fill:none;stroke:#FAC14D;stroke-width:0.488;stroke-miterlimit:10;}
	.st33{fill:#F2F2F2;}
	.st34{fill:#E6E6E6;}
	.st35{fill:#3FC080;}
	.st36{fill:#4D4D4D;}
	.st37{font-family:'Arvo';}
	.st38{font-size:22.3748px;}
	.st39{fill:#5237F4;}
	.st40{fill:#3D26C7;}
</style>
<g>
	<ellipse class="st0" cx="1029.8" cy="479.1" rx="54.7" ry="6.9"/>
	<linearGradient id="SVGID_1_" gradientUnits="userSpaceOnUse" x1="1063.9515" y1="116.765" x2="1111.1838" y2="478.0933">
		<stop  offset="0" style="stop-color:#00FFFF"/>
		<stop  offset="0.3693" style="stop-color:#0071BC"/>
		<stop  offset="0.7613" style="stop-color:#9E005D"/>
		<stop  offset="1" style="stop-color:#ED1E79"/>
	</linearGradient>
	<path class="st1" d="M1195.9,154.8l-132.3-49.1c-4-1.5-8.4,0.6-9.9,4.6l-89.3,240.6c-1.5,4,0.6,8.4,4.5,9.9l132.3,49.1
		c4,1.5,8.4-0.6,9.9-4.5l89.3-240.6C1201.9,160.7,1199.8,156.3,1195.9,154.8z"/>
	<path class="st2" d="M1116.6,278.1c-3.3,0-6.7-0.1-10.1-0.3c-51.4-2.8-93.3-25.7-112.2-61.1c-30.1-56.6-0.5-135.4,44.8-160.3
		c22.9-12.6,42.8-12.2,55.4-9.7c21.6,4.3,37.6,14.2,44.9,28c7.9,14.7,3.6,28.5-0.9,43.2c-4,13.1-8.1,26.6-3.2,41.1
		c4.4,13,15.9,17.1,28,21.3c12.4,4.4,25.2,8.9,32,23.1c7.2,15,6.3,35.6-2,47.8C1182,267.7,1151.9,278.1,1116.6,278.1z M1080.1,46.3
		c-11.3,0-25.2,2.6-40.6,11l0,0c-44.9,24.6-74.2,102.8-44.3,158.8c18.7,35.1,60.3,57.8,111.3,60.6c39.2,2.2,73.7-8.3,85.8-26.1
		c8.2-12,9-32.1,2-46.8c-6.6-13.8-19.2-18.2-31.4-22.5c-12.4-4.4-24.1-8.5-28.7-22c-5-14.9-0.9-28.6,3.2-41.8
		c4.4-14.4,8.6-28,0.9-42.4c-7.2-13.5-22.9-23.2-44.2-27.5C1090.2,46.9,1085.5,46.3,1080.1,46.3z M1039.3,56.9L1039.3,56.9
		L1039.3,56.9z"/>
	<polygon class="st3" points="1163.8,142.9 1149.2,152.7 1021.3,238.6 1001,252.2 1028.9,177.1 1049.2,163.5 1095.1,132.6 
		1109.7,122.8 	"/>
	<polygon class="st3" points="1193,153.7 1178.3,163.5 1006.2,279 1006.2,279 986,292.6 995.8,266.2 995.8,266.2 1016.1,252.6 
		1016.1,252.5 1159.2,156.4 1173.9,146.6 	"/>
	
		<rect x="1121.3" y="289.9" transform="matrix(0.9875 -0.1573 0.1573 0.9875 -35.8255 188.989)" class="st4" width="109.4" height="61.8"/>
	<polygon class="st5" points="1176,320.8 1225.2,281.7 1117.1,298.9 	"/>
	<path class="st6" d="M1080.2,192.4c4.2-3.6,7.8-21.5-1.5-17c-9.3,4.5-2.2,17.1-2.2,17.1L1080.2,192.4z"/>
	<path class="st7" d="M1082.8,231.1c8.5,2.2,14.5-1.9,16.5-3.8c2-2-3.3-4.9-5-7.3c-0.7-1-0.9-2.6-0.7-4.6c0.3-2.6,1.3-5.9,2.5-9.6
		l-16.9-5.2c0,0-0.5,8.8-0.9,12c-0.1,0.6-0.2,1.1-0.4,1.5c-0.9,1.9-3.1,2.6-6.7,4.8C1066.7,221.6,1074.3,228.9,1082.8,231.1z"/>
	<path class="st8" d="M1078.2,212.6c0,0.2-0.1,0.4-0.1,0.6c1.7,2,3.7,3.7,5.5,3.9c2.8,0.4,6.4-0.6,10.2-3.1c0.4-2.4,1.3-5.2,2.2-8.2
		l-16.9-5.2C1079.1,200.6,1078.6,209.3,1078.2,212.6z"/>
	<path class="st7" d="M1102.2,195.4c-1.9,8.3-3,12.3-7.1,15.3c-4.1,3-8.1,4.1-11.1,3.8c-3.8-0.5-8.6-7.1-9.2-10.8
		c-0.5-3.8-0.7-13.5,1.6-22.5c1.2-4.6,7.7-9.5,13.6-8.8C1096,173.1,1106.8,175.1,1102.2,195.4z"/>
	<path class="st7" d="M1073.2,193.3c0.3,3.2,1.9,5.6,3.5,5.4c1.7-0.2,2.7-2.8,2.4-6c-0.3-3.2-1.9-5.6-3.5-5.4
		S1072.9,190.1,1073.2,193.3z"/>
	<path class="st9" d="M1085.4,225.9"/>
	<linearGradient id="SVGID_2_" gradientUnits="userSpaceOnUse" x1="1099.4888" y1="317.1288" x2="1060.5294" y2="199.8965">
		<stop  offset="0" style="stop-color:#3301A0"/>
		<stop  offset="1" style="stop-color:#6A01A0"/>
	</linearGradient>
	<path class="st10" d="M1152.5,274.6l-39,10.2l-10.4-29.4c0,0-8.1,49.4-9.7,55.1c-1.5,5.5-3,5.9-5.4,5.5l-39.3-6.9
		c-2.7-0.5-4.1-3.7-2.7-8.7c1.1-4.1,9.7-37.5,11.2-52.8c0,0-4.9,11.8-12.6,23.4l-37-14.1l4.1-11.3l25.8,7.1c0,0,8.7-18,18.4-28.6
		c2.9-3.2,11.2-7.3,16.2-8.1c1.5-0.3,2.8-0.4,3.8-0.5c0.2,4.6,4.4,7.9,7.8,8.5c3.4,0.6,10.4-0.5,11.3-4.1c1.3,0.5,2.6,1.2,4,2.1
		c5,3.3,8.1,4.4,10.3,8.7c3.5,7,14.3,38.1,14.3,38.1l29.4-6.6L1152.5,274.6z"/>
	<g>
		<path class="st11" d="M1064.7,463.6c0.8,1.8,4.8,6,10.5,9c5.8,3,17.8,5.7,10.6,7.4c-7.2,1.7-12,1.5-22.8-2.1
			c-4.6-1.3-4.1-1.5-9-1.3c-4.9,0.2-8.5,1.5-6.2-8C1050.1,459.1,1062.2,457.9,1064.7,463.6z"/>
		<path class="st11" d="M980.5,423.9c-0.4,1.9-5.3,6.2-10.3,10.3s-10.8,6.3-6.9,8.5c6.8,3.7,10.2,0.5,20.1-5.4
			c4.2-2.3,4-1.4,8.5-3.2c3.1-1.2,5.8-2.9,4.4-9.1C994.2,415.6,981.8,417.8,980.5,423.9z"/>
		<linearGradient id="SVGID_3_" gradientUnits="userSpaceOnUse" x1="1033.1936" y1="472.8773" x2="1038.506" y2="310.3148">
			<stop  offset="0" style="stop-color:#F7631E"/>
			<stop  offset="1" style="stop-color:#FEBC66"/>
		</linearGradient>
		<path class="st12" d="M1093.1,313.8c0,0-5.5,38-9.2,60.8c-0.4,2.6-0.8,4.9-1.2,7c-0.5,3-0.9,5.3-1.3,6.7
			c-0.6,2.5-1.6,7.3-2.8,13.3c-0.4,2.2-0.9,4.5-1.4,6.9c-4.1,19.8-9.3,46.5-9.6,49.9c-0.3,3.4-0.1,6.3,0,7.8c0,0.5-0.5,0.9-1,0.6
			l-5.4-2.5c-0.2-0.1-0.3-0.1-0.5,0c-1.7,0.7-11.8,4.4-13.3,6.1c-1.6,1.9,0.6-4.7,1.2-11.7c0.4-5.2,6.7-36.9,10.8-56.8
			c0.5-2.5,1-4.8,1.4-6.9c0.8-4,1.4-7.1,1.7-8.5c0.4-2.1,0.7-6.5,1-11.9c0.1-2.3,0.2-4.8,0.3-7.3c0.4-13.3,0.5-28.8,0.5-31.8
			c0-0.3-0.2-0.6-0.5-0.6l-8.8-2.3c-0.1,0-0.3,0-0.4,0c-2.3,1.1-22.5,11-32.2,19.3c-2.4,2-4.1,4-4.8,5.7c-0.1,0.2-0.2,0.5-0.2,0.7
			c-1.9,7.8-3.8,14.1-5.4,18.7c-0.6,1.7-1.1,3.1-1.7,4.3c-0.3,0.6-0.6,1.3-0.9,2.2c-3.6,8.6-11.5,29.9-12.9,34c-0.9,2.6,0,4.4,0,6.3
			c0,3.1-4.9,4.4-7.5,3.2c-1.9-0.9-5.8-3.5-8-3.1c-0.5,0.1-1-0.3-0.9-0.8c1.4-6,6.8-27.9,11.6-46.3c0.6-2.3,1.2-4.6,1.8-6.8
			c2.5-9.1,4.6-16.5,5.9-19.3c0.6-1.4,2.1-3.4,4.2-5.9c11.6-13.8,40.7-39.6,40.7-39.6s1-3.2,2.8-2.9c3.8,0.6,4.1,1.2,23.4,5.1
			C1091.2,311.5,1093.7,309.4,1093.1,313.8z"/>
	</g>
	<path class="st6" d="M1100.8,181.2c-11.5-1.3-19.6-3.1-23.5-8.4c-3.9-5.3-0.3-5.9,2.6-4.1c0,0,1.9-4.9,6.4-1.8
		c0,0,5.8-3.8,10.1,2.2c0,0,7.9-2.4,8.6,3.8C1105,172.9,1110.9,182.3,1100.8,181.2z"/>
	<path class="st6" d="M1106.1,178.6c3.1,4.6,2.3,22.7-5.7,16.1c-7.9-6.7,1.1-15.8,1.1-15.8L1106.1,178.6z"/>
	<path class="st7" d="M1099.7,194.8c-1.6,2.8-1.6,5.7-0.2,6.5s3.9-0.8,5.4-3.5c1.6-2.8,1.6-5.7,0.2-6.5
		C1103.7,190.5,1101.3,192,1099.7,194.8z"/>
	<path class="st6" d="M1092.9,313.5l-48.1-8.7c-0.3-0.1-0.5-0.4-0.4-0.7l1.7-4.8c0.1-0.3,0.3-0.4,0.6-0.4l47.4,8.3
		c0.3,0.1,0.5,0.3,0.4,0.6l-0.9,5.2C1093.5,313.3,1093.2,313.5,1092.9,313.5z"/>
	<path class="st13" d="M1099,221.7c-3.6,4.4-9.1,6.7-14.7,5.8c-6-1.1-10.6-5.7-12.3-11.8c1.5-0.3,2.8-0.4,3.8-0.5
		c0.2,4.6,4.4,7.9,7.8,8.5c3.4,0.6,10.4-0.5,11.3-4.1C1096.3,220.1,1097.6,220.8,1099,221.7z"/>
	<path class="st6" d="M1108.9,178.6c0.6-1.3,0.1-2.8-1.1-3.4l-2.3,4.5C1106.8,180.4,1108.3,179.9,1108.9,178.6z"/>
	<path class="st6" d="M1081.7,179c4.2-1.4,6.5-5.9,5.2-10.1l-15.2,4.9C1073,178.1,1077.5,180.4,1081.7,179z"/>
	<path class="st6" d="M1088.1,180.7c2.2-2,2.4-5.3,0.4-7.5l-8,7.1C1082.5,182.4,1085.9,182.6,1088.1,180.7z"/>
	<path class="st6" d="M1108.5,181.8c1.4-0.3,2.3-1.6,2-3l-5,1C1105.8,181.2,1107.1,182.1,1108.5,181.8z"/>
	<path class="st14" d="M1195.9,154.8l-2.9-1.1l-19.1-7.1l-10.1-3.7l-54.1-20.1l-46.1-17.1c-4-1.5-8.4,0.6-9.9,4.6l-24.8,66.8
		l-27.9,75.1l-5.2,14v0l-9.8,26.5l-21.6,58.2c-0.3,0.7-0.4,1.5-0.4,2.2c-0.2,3.3,1.7,6.5,5,7.7l24.6,9.1l18.5,6.9l48.9,18.1
		l17.8,6.6l22.5,8.4c4,1.5,8.4-0.6,9.9-4.5l87.7-236.2l1.6-4.4C1201.9,160.7,1199.9,156.3,1195.9,154.8z M1183.3,169.8l-1.9,5
		l-75.5,203.5c-0.8,2.1-3.2,3.3-5.4,2.4l-16.6-6.2l-20-7.4l-41.4-15.4l-19-7l-15.1-5.6c-1.6-0.6-2.7-2.1-2.7-3.7
		c0-0.5,0-1.1,0.2-1.6l20.3-54.7v0l9.8-26.5v0l5.2-14l27.9-75.1l14.2-38.2c0.8-2.1,3.2-3.3,5.4-2.4l26.4,9.8l54.1,20.1l10.1,3.7
		l19.1,7.1l2.5,0.9C1183,165.2,1184.1,167.6,1183.3,169.8z"/>
	<path class="st0" d="M1059.5,401.8l17.8,6.6c0.5-2.4,1-4.7,1.4-6.9l-17.8-6.6C1060.5,396.9,1060,399.2,1059.5,401.8z"/>
	<path class="st0" d="M991.7,376.6l17.8,6.6c0.3-0.9,0.7-1.6,0.9-2.2c0.5-1.2,1.1-2.6,1.7-4.3l-18.5-6.9
		C992.9,372,992.3,374.3,991.7,376.6z"/>
	<path class="st15" d="M1031.3,375.4L1031.3,375.4c-3.8-1.4-5.7-5.6-4.3-9.3l0,0c1.4-3.8,5.6-5.7,9.3-4.3l0,0
		c3.8,1.4,5.7,5.6,4.3,9.3l0,0C1039.2,374.9,1035,376.8,1031.3,375.4z"/>
	<path class="st7" d="M1001.6,250.7c1.9,0.4,4.8-0.2,6.3-0.9c1.4-0.7,2.8-5.1,3.2-8.2c0.4-3.1-3.6-2.7-3.6-2.7s1.6-0.6,4.1-1
		c2.6-0.4,3.6-3.3-0.1-3.2c-3.7,0-7.3,1.8-10.7,8.8c0,0-3.5,6.5,0,9.4L1001.6,250.7z"/>
	<path class="st7" d="M1169.9,256.4c0-2.5-4.3-6.4-5.4-4.9c-1.2,1.6-4.4,7.3-3.9,10.1c0.6,2.8,2,4.9,2,4.9l-0.8,2.2
		C1161.7,268.8,1169.8,267.2,1169.9,256.4z"/>
	<path class="st16" d="M1103.5,73.4L942.7,86.7c-3.9,0.3-6.8,3.7-6.4,7.6l3.9,47c0.3,3.9,3.7,6.8,7.6,6.4l15.9-1.3l7.7-0.6
		c1.5,1.7,5.4,5.8,7,7.4c1.4,1.4,3.9,1.2,5.1-0.4c1.3-1.8,4.5-6.5,5.7-8.4l39.1-3.2l80.4-6.6c3.9-0.3,6.8-3.7,6.4-7.6l-3.9-47
		C1110.8,76,1107.4,73.1,1103.5,73.4z"/>
	<path class="st16" d="M1216.4,70.7l-50.7-6.1c-2.2-0.3-4.1,1.3-4.4,3.5l-6.1,50.7c-0.3,2.2,1.3,4.1,3.5,4.4l50.7,6.1
		c2.2,0.3,4.1-1.3,4.4-3.5l6.1-50.7C1220.1,72.9,1218.6,71,1216.4,70.7z"/>
	<path class="st16" d="M995.3,176.9c-1.5-4.8-6.7-7.5-11.5-6l-59.1,18.7c-4.8,1.5-7.5,6.7-6,11.5l12.2,38.5c1.5,4.8,6.7,7.5,11.5,6
		l5.8-1.8c0,0,10.8,7.5,14.5,9.7c2.7,1.6,6.4,0.4,7.7-2.4c1.8-4,6.3-16.3,6.3-16.3l24.8-7.9c4.8-1.5,7.5-6.7,6-11.5L995.3,176.9z"/>
	<path class="st16" d="M1193.7,194.3c-0.6-2.4-3.8-3-5.2-0.8l-5.3,8.7l-3-12.6c-0.6-2.5-3.2-4.1-5.7-3.5l-34.6,8.2
		c-2.5,0.6-4.1,3.2-3.5,5.7l8.2,34.6c0.6,2.5,3.2,4.1,5.7,3.5l34.6-8.2c2.5-0.6,4.1-3.2,3.5-5.7l-3-12.6l8.7,5.3
		c2.1,1.3,4.8-0.6,4.2-3.1L1193.7,194.3z"/>
	<path class="st16" d="M881.5,136.3c-1.8-3.8-7.3-3.5-8.7,0.5l-11.2,31.6c-1.4,3.9,2.7,7.6,6.4,5.8l21.4-10.2
		c2.3-1.1,3.3-3.9,2.2-6.3L881.5,136.3z"/>
	<path class="st16" d="M892.7,50.2c-7.2,2.3-11.3,10-9,17.3c2.3,7.2,10,11.3,17.3,9c7.2-2.3,11.3-10,9-17.3
		C907.7,51.9,900,47.9,892.7,50.2z"/>
	<path class="st16" d="M1270.9,398.6c-4.1-3.1-9.9-2.2-12.9,1.8c-3.1,4.1-2.2,9.9,1.8,12.9c4.1,3.1,9.9,2.2,12.9-1.8
		C1275.8,407.5,1275,401.7,1270.9,398.6z"/>
	
		<ellipse transform="matrix(0.6618 -0.7497 0.7497 0.6618 311.8787 988.2771)" class="st16" cx="1251.2" cy="148.5" rx="17.4" ry="17.4"/>
	<path class="st16" d="M968,274.8c-12.5,3.9-19.4,17.2-15.5,29.7c3.9,12.5,17.2,19.4,29.7,15.5c12.5-3.9,19.4-17.2,15.5-29.7
		C993.8,277.9,980.5,270.9,968,274.8z"/>
	<g>
		<linearGradient id="SVGID_4_" gradientUnits="userSpaceOnUse" x1="1073.0751" y1="190.0029" x2="952.4784" y2="-21.4402">
			<stop  offset="0" style="stop-color:#00FFFF"/>
			<stop  offset="1" style="stop-color:#9E005D"/>
		</linearGradient>
		<path class="st17" d="M1106.3,61.9L933.8,76.2c-4.2,0.3-7.3,4-6.9,8.2l4.2,50.5c0.3,4.2,4,7.3,8.2,6.9l17-1.4l8.3-0.7
			c1.6,1.8,5.8,6.3,7.5,7.9c1.6,1.5,4.2,1.3,5.5-0.5c1.4-1.9,4.8-7,6.1-9l41.9-3.5l86.2-7.1c4.2-0.3,7.3-4,6.9-8.2l-4.2-50.5
			C1114.1,64.7,1110.5,61.6,1106.3,61.9z"/>
		<path class="st18" d="M968.9,107.8c1.6-1.7,2.5-4,2.3-6.4l-0.3-4.1c-0.4-4.6-4.2-8.2-8.8-8c-4.7,0.2-8.3,4.3-7.9,9l0.4,4.4
			c0.2,2.5,1.5,4.6,3.3,6c-5.4,2.3-9.4,7.3-10.4,13.2c-0.4,2.3,1.6,4.3,3.9,4.1l26.9-2.2c2.3-0.2,3.9-2.5,3.1-4.7
			C979.4,113.5,974.7,109.2,968.9,107.8z"/>
		<g>
			<path class="st18" d="M1038.5,83l-34.4,2.8c-2.8,0.2-4.9,2.7-4.7,5.5l1.4,16.9c0.2,2.8,2.7,4.9,5.5,4.7l3.4-0.3
				c0,0,4.9,5.4,6.7,7.1c1.3,1.2,3.4,1,4.5-0.4c1.5-1.9,5.4-8.1,5.4-8.1l14.4-1.2c2.8-0.2,4.9-2.7,4.7-5.5l-1.4-16.9
				C1043.8,84.8,1041.3,82.7,1038.5,83z"/>
			<path class="st19" d="M1008,94.4c-1.1,0-2-0.8-2.1-1.9c-0.1-1.2,0.8-2.2,1.9-2.3l27.9-2.3c1.1-0.1,2.2,0.8,2.3,1.9
				c0.1,1.2-0.8,2.2-1.9,2.3l-27.9,2.3C1008.1,94.4,1008,94.4,1008,94.4z"/>
			<path class="st19" d="M1008.6,101.7c-1.1,0-2-0.8-2.1-1.9c-0.1-1.2,0.8-2.2,1.9-2.3l27.9-2.3c1.2-0.1,2.2,0.8,2.3,1.9
				c0.1,1.2-0.8,2.2-1.9,2.3l-27.9,2.3C1008.7,101.7,1008.6,101.7,1008.6,101.7z"/>
			<path class="st19" d="M1009.2,109c-1.1,0-2-0.8-2.1-1.9c-0.1-1.2,0.8-2.2,1.9-2.3l12.6-1c1.1-0.1,2.2,0.8,2.3,1.9
				c0.1,1.2-0.8,2.2-1.9,2.3l-12.6,1C1009.3,109,1009.2,109,1009.2,109z"/>
		</g>
		<path class="st18" d="M1103,106.5c-0.3-3.4-1.7-6.5-3.8-9l-0.3-3.6c-0.5-6.1-5.4-10.9-11.3-11.4l-0.1-1.1c-0.1-1.2-1.2-2.1-2.4-2
			c-1.2,0.1-2.1,1.2-2,2.4l0.1,1.1c-5.8,1.5-9.8,7-9.3,13.1l0.3,3.6c0,0,0,0,0,0c-1.7,2.7-2.6,6-2.3,9.5l0.1,1.6
			c0.1,0.8,0.8,1.4,1.6,1.3l6.2-0.5c-0.1,0.5,0.1,0.9,0.6,1.2c2.2,1.4,4.8,2,7.6,1.8c2.8-0.2,5.2-1.3,7.2-3c0.4-0.4,0.5-0.9,0.4-1.3
			l6.2-0.5c0.8-0.1,1.4-0.8,1.3-1.6L1103,106.5z"/>
	</g>
	<path class="st4" d="M1076.6,109.9c0.3,3.6-2.4,6.8-6,7.1c-3.6,0.3-6.8-2.4-7.1-6c-0.3-3.6,2.4-6.8,6-7.1
		C1073.1,103.6,1076.3,106.3,1076.6,109.9z"/>
	<path class="st20" d="M1222.1,122.1l-58.8-7c-1.1-0.1-1.9-1.1-1.7-2.2l7-58.8c0.1-1.1,1.1-1.9,2.2-1.7l58.8,7
		c1.1,0.1,1.9,1.1,1.7,2.2l-7,58.8C1224.2,121.4,1223.2,122.2,1222.1,122.1z"/>
	<path class="st21" d="M1168,108.5l5.8-48.7c0.1-0.7,0.7-1.1,1.3-1.1l48.7,5.8c0.7,0.1,1.1,0.7,1.1,1.3l-5.8,48.7
		c-0.1,0.7-0.7,1.1-1.3,1.1l-48.7-5.8C1168.4,109.7,1167.9,109.1,1168,108.5z"/>
	<path class="st22" d="M1197.7,91.3l-5.7,4.4c-1,0.8-2.5,0.6-3.4-0.4l0,0c-0.8-1-2.3-1.2-3.4-0.4l-8.4,6.6c-1.7,1.3-0.9,4,1.2,4.3
		l1,0.1l19.7,2.4l11.1,1.3c2.1,0.3,3.5-2.2,2.2-3.9l-11-14C1200.2,90.7,1198.7,90.5,1197.7,91.3z"/>
	<path class="st22" d="M1187.5,81.8c-0.3,2.3-2.4,4-4.7,3.7c-2.3-0.3-4-2.4-3.7-4.7c0.3-2.3,2.4-4,4.7-3.7
		C1186.2,77.4,1187.8,79.5,1187.5,81.8z"/>
	<linearGradient id="SVGID_5_" gradientUnits="userSpaceOnUse" x1="1013.1066" y1="211.8177" x2="922.4375" y2="201.9008">
		<stop  offset="0" style="stop-color:#00FFFF"/>
		<stop  offset="0.6927" style="stop-color:#9E005D"/>
		<stop  offset="1" style="stop-color:#ED1E79"/>
	</linearGradient>
	<path class="st23" d="M973.6,162.1l-63.4,20.1c-5.2,1.6-8.1,7.2-6.4,12.4l13.1,41.3c1.6,5.2,7.2,8.1,12.4,6.4l6.2-2
		c0,0,11.6,8,15.6,10.4c2.9,1.7,6.9,0.5,8.2-2.6c1.9-4.3,6.8-17.5,6.8-17.5l26.6-8.4c5.2-1.6,8.1-7.2,6.4-12.4L986,168.5
		C984.3,163.4,978.8,160.5,973.6,162.1z"/>
	<path class="st24" d="M973.8,183.5l-51.4,16.3c-1.7,0.5-3.5-0.4-4-2.1c-0.5-1.7,0.4-3.5,2.1-4l51.4-16.3c1.7-0.5,3.5,0.4,4,2.1
		C976.4,181.2,975.5,183,973.8,183.5z"/>
	<path class="st24" d="M978.4,198L927,214.3c-1.7,0.5-3.5-0.4-4-2.1c-0.5-1.7,0.4-3.5,2.1-4l51.4-16.3c1.7-0.5,3.5,0.4,4,2.1
		C981,195.7,980.1,197.5,978.4,198z"/>
	<path class="st24" d="M954.7,221.5l-23.2,7.3c-1.7,0.5-3.5-0.4-4-2.1c-0.5-1.7,0.4-3.5,2.1-4l23.2-7.3c1.7-0.5,3.5,0.4,4,2.1
		C957.4,219.2,956.4,221,954.7,221.5z"/>
	<path class="st25" d="M1192.6,184.1l-5.7,9.3l-3.2-13.5c-0.7-2.7-3.4-4.4-6.1-3.8l-37.1,8.8c-2.7,0.7-4.4,3.4-3.8,6.1l8.8,37.1
		c0.7,2.7,3.4,4.4,6.1,3.8l37.1-8.8c2.7-0.7,4.4-3.4,3.8-6.1l-3.2-13.5l9.3,5.7c2.3,1.4,5.2-0.7,4.5-3.3l-5-21
		C1197.5,182.4,1194,181.8,1192.6,184.1z"/>
	<polyline class="st18" points="1158,194.1 1171.6,202.5 1163.2,216 	"/>
	<path class="st26" d="M879.1,152.3l-10.9-22.9c-1.9-4-7.8-3.7-9.3,0.5l-12,33.9c-1.5,4.2,2.9,8.2,6.9,6.2l22.9-10.9
		C879.2,157.8,880.3,154.8,879.1,152.3z"/>
	<path class="st4" d="M902.6,50.3c2.5,7.8-1.8,16.1-9.6,18.5c-7.8,2.5-16.1-1.8-18.5-9.6c-2.5-7.8,1.8-16.1,9.6-18.5
		C891.9,38.2,900.2,42.5,902.6,50.3z"/>
	<path class="st18" d="M894.3,47.7c-2.6-1.5-5.9-0.5-7.3,2.1c-2.7-1.4-5.9-0.3-7.2,2.5c-1.2,2.6,0,5.6,2.5,6.9l7.4,3.8
		c1,0.5,2.3,0.1,2.8-0.9l3.8-7.4C897.6,52.3,896.7,49.1,894.3,47.7z"/>
	<path class="st4" d="M1281.5,418.3c-3.3,4.4-9.5,5.3-13.9,2c-4.4-3.3-5.3-9.5-2-13.9c3.3-4.4,9.5-5.3,13.9-2
		C1283.9,407.7,1284.7,413.9,1281.5,418.3z"/>
	<path class="st18" d="M1279.7,412.7c-0.2-2-2-3.5-4-3.2c-0.3-2-2.2-3.4-4.2-3c-1.9,0.4-3.1,2.2-2.8,4.1l0.8,5.5
		c0.1,0.8,0.8,1.3,1.6,1.2l5.5-0.8C1278.4,416.3,1279.8,414.6,1279.7,412.7z"/>
	<linearGradient id="SVGID_6_" gradientUnits="userSpaceOnUse" x1="1243.0547" y1="170.5265" x2="1354.6205" y2="-7.9787">
		<stop  offset="0" style="stop-color:#00FFFF"/>
		<stop  offset="0.6927" style="stop-color:#9E005D"/>
		<stop  offset="1" style="stop-color:#ED1E79"/>
	</linearGradient>
	<circle class="st27" cx="1263.6" cy="137.6" r="18.7"/>
	<g>
		<path class="st18" d="M1270.4,127.9c-0.7-0.8-2-1-2.9-0.2c0,0-2.3,2.4-5.6,4.5l-1.8-0.7c-0.1-0.1-0.3,0-0.4,0.2l-3.8,9.3
			c-0.1,0.1,0,0.3,0.2,0.4l1.3,0.5c0.2,1.8,1.4,3.4,3.1,4.1l0.8,0.3l5.1,2.1l1.1,0.5c1,0.4,2.2-0.1,2.7-1.1c0.2-0.5,0.2-1.1,0-1.6
			l0.8,0.3c1,0.4,2.2-0.1,2.7-1.1c0.2-0.6,0.2-1.2-0.1-1.8c0.8,0,1.6-0.4,2-1.3c0.4-1-0.1-2.2-1.1-2.7l0,0c0.5-0.2,0.9-0.6,1.1-1.1
			c0.4-1-0.1-2.2-1.1-2.7l-7.2-2.9C1269.1,131.5,1271.7,129.4,1270.4,127.9z"/>
		<path class="st18" d="M1251.3,139.9l3.1,1.3c0.2,0.1,0.4,0,0.5-0.2l4.2-10.3c0.1-0.2,0-0.4-0.2-0.5l-3.1-1.3
			c-0.2-0.1-0.4,0-0.5,0.2l-4.2,10.3C1251,139.6,1251.1,139.8,1251.3,139.9z"/>
	</g>
	<linearGradient id="SVGID_7_" gradientUnits="userSpaceOnUse" x1="897.5482" y1="371.0122" x2="1101.5537" y2="161.34">
		<stop  offset="0" style="stop-color:#00FFFF"/>
		<stop  offset="0.6927" style="stop-color:#9E005D"/>
		<stop  offset="1" style="stop-color:#ED1E79"/>
	</linearGradient>
	<circle class="st28" cx="964.5" cy="302.2" r="25.4"/>
	<g>
		<path class="st18" d="M963.2,286.2c-1.5-0.2-2.9,0.7-3.2,2.2c0,0.1-0.3,4.4-2,9.5l-2.5,0.8c-0.2,0.1-0.3,0.3-0.3,0.5l4.1,13.1
			c0.1,0.2,0.3,0.3,0.5,0.3l1.9-0.6c1.8,1.7,4.4,2.4,6.8,1.6l1.1-0.3l7.2-2.2l1.6-0.5c1.5-0.5,2.3-2,1.8-3.5
			c-0.2-0.7-0.8-1.3-1.4-1.6l1.2-0.4c1.5-0.5,2.3-2,1.8-3.5c-0.3-0.8-0.9-1.5-1.6-1.7c0.9-0.7,1.3-1.9,1-3c-0.5-1.5-2-2.3-3.5-1.8
			l0,0c0.3-0.6,0.5-1.4,0.2-2.1c-0.5-1.5-2-2.3-3.5-1.8l-10.1,3.2C964.9,291.1,965.8,286.6,963.2,286.2z"/>
		<path class="st18" d="M953.5,315.3l4.4-1.4c0.2-0.1,0.4-0.3,0.3-0.6l-4.5-14.4c-0.1-0.2-0.3-0.4-0.6-0.3l-4.4,1.4
			c-0.2,0.1-0.4,0.3-0.3,0.6l4.5,14.4C953,315.3,953.3,315.4,953.5,315.3z"/>
	</g>
	<path class="st29" d="M1191.1,200.4h84.2c0.8,0,1.5-0.7,1.5-1.5v-29.6c0-0.8-0.7-1.5-1.5-1.5h-84.2c-0.8,0-1.5,0.7-1.5,1.5v29.6
		C1189.6,199.7,1190.3,200.4,1191.1,200.4z"/>
	<g>
		<text transform="matrix(1 0 0 1 1208.2297 187.9346)" class="st18" style="font-family:'Rubik-Regular'; font-size:10.6253px;">Get Started</text>
	</g>
	<g>
		<text transform="matrix(1 0 0 1 885.7053 187.9336)" style="fill:#C1C1C1; font-family:'Rubik-Regular'; font-size:10.6253px;">Home</text>
	</g>
	<g>
		<text transform="matrix(1 0 0 1 948.8952 187.9346)" style="fill:#C1C1C1; font-family:'Rubik-Regular'; font-size:10.6253px;">About Us</text>
	</g>
	<g>
		<text transform="matrix(1 0 0 1 1028.5989 187.9346)" style="fill:#C1C1C1; font-family:'Rubik-Regular'; font-size:10.6253px;">Services</text>
	</g>
	<g>
		<text transform="matrix(1 0 0 1 1104.0051 187.9346)" style="fill:#C1C1C1; font-family:'Rubik-Regular'; font-size:10.6253px;">Contact Us</text>
	</g>
</g>
<g>
	<g>
		
			<image style="overflow:visible;opacity:0.15;" width="194" height="165" xlink:href="C16A831E.png"  transform="matrix(1 0 0 1 49.9336 191.9336)">
		</image>
		<g>
			<path class="st30" d="M220.1,322.5l-133,16.3c-5.1,0.6-9.8-3-10.4-8.1l-12.2-100c-0.6-5.1,3-9.8,8.1-10.4l133-16.3
				c5.1-0.6,9.8,3,10.4,8.1l12.2,100C228.8,317.2,225.2,321.9,220.1,322.5z"/>
		</g>
	</g>
	<g>
		
			<image style="overflow:visible;opacity:0.15;" width="260" height="277" xlink:href="C16A8322.png"  transform="matrix(1 0 0 1 219.9336 49.9336)">
		</image>
		<g>
			<path class="st31" d="M459.5,243.3l-129,64.6c-4.6,2.3-10.2,0.4-12.5-4.2l-82.1-164c-2.3-4.6-0.4-10.2,4.2-12.5l129-64.6
				c4.6-2.3,10.2-0.4,12.5,4.2l82.1,164C466,235.4,464.1,241,459.5,243.3z"/>
		</g>
	</g>
	<path class="st32" d="M183.8,156.5c-81-92.6,40.3-166.3,111.3-88.9c71,77.4,148.8,42.6,173.6,72.3
		c24.8,29.8,35.3,145.3-101.4,127.2s0.2,76.5-52,131.4c-52.2,54.9-212.7,20.7-166.2-67.4c46.5-88.1-86-55.5-77.6-142.6
		C80,101.4,183.8,156.5,183.8,156.5z"/>
	<g>
		<g>
			<g>
				
					<image style="overflow:visible;opacity:0.15;" width="391" height="285" xlink:href="C16A8325.png"  transform="matrix(1 0 0 1 70.9336 92.9336)">
				</image>
				<g>
					
						<rect x="156.8" y="62.9" transform="matrix(0.1109 -0.9938 0.9938 0.1109 5.5238 471.0487)" class="st33" width="218.3" height="339"/>
				</g>
			</g>
			
				<rect x="107" y="123.8" transform="matrix(0.9938 0.1109 -0.1109 0.9938 17.0217 -29.8085)" class="st34" width="339" height="28.6"/>
			<path class="st18" d="M430.2,165l-309.5-34.5c-2.6-0.3-4.5-2.7-4.2-5.3l0,0c0.3-2.6,2.7-4.5,5.3-4.2l309.5,34.5
				c2.6,0.3,4.5,2.7,4.2,5.3l0,0C435.2,163.3,432.9,165.2,430.2,165z"/>
			<path class="st35" d="M124.2,115.2c-0.2,1.8-1.8,3.1-3.6,2.9c-1.8-0.2-3.1-1.8-2.9-3.6c0.2-1.8,1.8-3.1,3.6-2.9
				C123.1,111.8,124.4,113.4,124.2,115.2z"/>
			<path class="st31" d="M136.5,116.6c-0.2,1.8-1.8,3.1-3.6,2.9c-1.8-0.2-3.1-1.8-2.9-3.6s1.8-3.1,3.6-2.9
				C135.4,113.1,136.7,114.8,136.5,116.6z"/>
			<path class="st30" d="M148.7,117.9c-0.2,1.8-1.8,3.1-3.6,2.9c-1.8-0.2-3.1-1.8-2.9-3.6c0.2-1.8,1.8-3.1,3.6-2.9
				C147.6,114.5,148.9,116.1,148.7,117.9z"/>
		</g>
		<path class="st18" d="M375.5,260.4l-222.4-24.8c-8.6-1-14.8-8.7-13.8-17.3l0,0c1-8.6,8.7-14.8,17.3-13.8L379,229.3
			c8.6,1,14.8,8.7,13.8,17.3l0,0C391.8,255.2,384.1,261.4,375.5,260.4z"/>
		<text transform="matrix(0.9938 0.1109 -0.1109 0.9938 152.9681 226.8063)" class="st36 st37 st38">keyword</text>
		<polygon class="st39" points="384.1,245.6 374.2,234 373.6,239.3 364.6,238.3 363.5,248.4 372.5,249.5 371.9,254.7 		"/>
	</g>
	<g>
		
			<rect x="116.8" y="256.5" transform="matrix(0.7878 0.6159 -0.6159 0.7878 189.2827 -20.6585)" class="st40" width="15.7" height="15.7"/>
		<path class="st31" d="M195.6,173.6c-24.4-19.1-59.6-14.7-78.6,9.6c-19.1,24.4-14.7,59.6,9.6,78.6c24.4,19.1,59.6,14.7,78.6-9.6
			C224.3,227.8,220,192.6,195.6,173.6z M133.5,253c-19.5-15.2-22.9-43.4-7.7-62.9c15.2-19.5,43.4-22.9,62.9-7.7
			c19.5,15.2,22.9,43.4,7.7,62.9C181.2,264.8,153,268.2,133.5,253z"/>
		<path class="st35" d="M128.2,272.7l-12.5-9.8c-2.2-1.7-3.9-0.2-5.7,2l-46.3,56.2c-1.7,2.2-1.3,5.4,0.9,7.2l12.5,9.8
			c2.2,1.7,5.4,1.3,7.2-0.9l43.4-58.5C129.3,276.5,130.4,274.4,128.2,272.7z"/>
	</g>
	<path class="st35" d="M330.7,315.7c-3.6-13-15.3-18.2-25.2-17c-0.1,0-0.2,0-0.3,0c-0.1,0-0.2,0-0.3,0c-9.9,1.2-20,9-20.4,22.6
		c-0.1,0.4-0.1,0.8-0.1,1.1l0,0.2l0.4,2.9l0,0.1c0,0.1,0,0.1,0,0.2c0,0.3,0.1,0.7,0.2,1.1c0,0.1,0,0.2,0.1,0.3c0,0,0,0.1,0,0.1
		c0,0.2,0.1,0.4,0.2,0.5c0.3,0.9,0.6,1.9,1.1,2.8c0.1,0.2,0.2,0.4,0.3,0.6c0.1,0.1,0.1,0.3,0.2,0.4c2.6,5.1,7.2,10.2,11,15.1
		c5,6.5,10.1,12.8,15.2,19.2c0.2,0.2,0.3,0.4,0.5,0.6c0,0,0,0,0,0c0,0,0,0,0,0c0.1-0.2,0.2-0.5,0.3-0.7c3.4-7.4,6.9-14.8,10.1-22.3
		c2.5-5.7,5.7-11.7,7-17.3c0-0.1,0.1-0.3,0.1-0.4c0-0.2,0.1-0.4,0.1-0.6c0.2-1,0.3-2,0.3-3c0-0.2,0-0.4,0-0.5c0,0,0-0.1,0-0.1
		c0-0.1,0-0.2,0-0.3c0-0.4-0.1-0.8-0.1-1.1c0-0.1,0-0.1,0-0.2l0-0.1l-0.4-2.9l0-0.2C331,316.5,330.9,316.2,330.7,315.7z M309,330.1
		c-2.8,0.3-5.4-0.7-7.2-2.5c-0.6-0.6-1.1-1.3-1.5-2.1c-0.3-0.6-0.5-2-0.5-2.1l-0.2-1.9c-0.1-1.2,0-2.2,0.2-3.1
		c0.7-1.8,1.9-3.3,3.5-4.3c0.2-0.1,0.4-0.2,0.6-0.3c0.2-0.1,0.4-0.2,0.5-0.2c0.3-0.1,0.7-0.3,1-0.4c0.4-0.1,0.7-0.2,1.1-0.3
		c0.1,0,0.2,0,0.3,0c0.1,0,0.2,0,0.3,0c0.4,0,0.8,0,1.2,0c0.4,0,0.7,0.1,1.1,0.1c0.2,0,0.4,0.1,0.6,0.1c0.2,0,0.4,0.1,0.7,0.2
		c1.8,0.6,3.4,1.8,4.4,3.4c0.5,0.8,0.8,1.8,1,3l0.2,1.9c0,0.1,0.2,1.4,0,2.1c-0.2,0.9-0.6,1.7-1,2.4
		C314.1,328.1,311.8,329.7,309,330.1z"/>
	<g>
		<path class="st35" d="M414.2,209.2l3-19.2c-11.9-1.9-22.7-9.7-27.7-21.6c-1.3-3-2.1-6-2.5-9.1l-19.2,2.6c0.6,4.7,1.9,9.4,3.8,14
			C379.4,194.4,395.9,206.4,414.2,209.2z"/>
		<path class="st30" d="M387,159.3c-1-7,0.2-14.1,3.2-20.3l-17.5-8.3c-4.6,9.6-6.4,20.4-4.9,31.3L387,159.3z"/>
		<path class="st34" d="M390.2,139c3.7-7.7,10.1-14.2,18.6-17.7c18.3-7.7,39.5,0.9,47.2,19.2c7.7,18.3-0.9,39.5-19.2,47.2l7.5,17.9
			c28.2-11.9,41.5-44.4,29.6-72.6c-11.9-28.2-44.4-41.5-72.6-29.6c-13.1,5.5-22.9,15.4-28.6,27.3L390.2,139z"/>
		<path class="st31" d="M444.2,205.6l-7.5-17.9c-6.4,2.7-13.1,3.4-19.5,2.4l-3,19.2C424.1,210.8,434.4,209.7,444.2,205.6z"/>
	</g>
	<g>
		<path class="st35" d="M166.3,344.3c0.9,1.3,2,2.5,3.2,3.5l-1.2,3.4c-0.4,1.1,0.1,2.3,1.2,2.8l4.9,2.4c1,0.5,2.3,0.1,2.9-0.8l1.9-3
			c1.6,0.3,3.3,0.4,4.9,0.3l1.6,3.2c0.5,1,1.7,1.5,2.8,1.2l5.1-1.8c1.1-0.4,1.7-1.5,1.5-2.7l-0.8-3.4c1.5-1,2.8-2.1,3.9-3.4l3.2,1.1
			c1.1,0.4,2.3-0.1,2.8-1.2l2.4-4.9c0.5-1,0.1-2.3-0.8-2.9l-2.8-1.8c0.3-1.7,0.4-3.4,0.3-5.2l2.9-1.4c1-0.5,1.5-1.7,1.2-2.8
			l-1.8-5.1c-0.4-1.1-1.5-1.7-2.7-1.5l-3.1,0.7c-1-1.4-2.1-2.7-3.4-3.8l1-3c0.4-1.1-0.1-2.3-1.2-2.8l-4.8-2.3
			c-1-0.5-2.3-0.1-2.9,0.8l-1.6,2.6c-1.8-0.4-3.6-0.5-5.4-0.3l-1.4-2.8c-0.5-1-1.7-1.5-2.8-1.2l-5.1,1.8c-1.1,0.4-1.7,1.5-1.5,2.7
			l0.7,3c-1.5,1-2.9,2.3-4.1,3.7l-3-1c-1.1-0.4-2.3,0.1-2.8,1.2l-2.4,4.9c-0.5,1-0.1,2.3,0.8,2.9l2.8,1.8c-0.3,1.7-0.4,3.4-0.2,5.1
			l-3,1.4c-1,0.5-1.5,1.7-1.2,2.8l1.8,5.1c0.4,1.1,1.5,1.7,2.7,1.5L166.3,344.3z M180,324.1c4.6-1.6,9.7,0.9,11.4,5.5
			c1.6,4.6-0.9,9.7-5.5,11.3c-4.6,1.6-9.7-0.9-11.3-5.5C172.9,330.8,175.4,325.7,180,324.1L180,324.1z M180,324.1"/>
		<path class="st30" d="M235.6,321.6l-3.5-1.3c-1.1-0.4-2.3,0-2.8,1.1l-1,1.9c-1.5-0.2-2.9-0.1-4.4,0.1l-1.1-1.9
			c-0.6-1-1.8-1.4-2.9-0.9l-3.4,1.5c-1,0.5-1.6,1.6-1.2,2.7l0.7,2.1c-1.2,1-2.2,2.1-3.1,3.3l-2.2-0.6c-1.1-0.3-2.3,0.3-2.7,1.4
			l-1.3,3.5c-0.4,1.1,0,2.3,1.1,2.8l2.1,1.1c-0.1,1.4-0.1,2.8,0.2,4.2l-2.1,1.2c-1,0.6-1.4,1.8-0.9,2.9l1.5,3.4
			c0.5,1,1.6,1.6,2.7,1.2l2.4-0.8c0.8,1,1.8,1.9,2.8,2.7l-0.6,2.5c-0.3,1.1,0.3,2.3,1.4,2.7l3.5,1.3c1.1,0.4,2.3,0,2.8-1.1l1.2-2.3
			c1.3,0.1,2.7,0.1,4-0.1l1.3,2.2c0.6,1,1.8,1.4,2.9,0.9l3.4-1.5c1-0.5,1.6-1.6,1.2-2.7l-0.7-2.4c1.1-0.9,2.1-1.9,3-3.1l2.4,0.6
			c1.1,0.3,2.3-0.3,2.7-1.4l1.3-3.5c0.4-1.1,0-2.3-1.1-2.8l-2.1-1.1c0.2-1.4,0.1-2.8-0.1-4.2l2-1.2c1-0.6,1.4-1.8,0.9-2.9l-1.5-3.4
			c-0.5-1-1.6-1.6-2.7-1.2l-2.2,0.7c-0.9-1.1-1.9-2.1-3-2.9l0.6-2.2C237.3,323.2,236.7,322.1,235.6,321.6L235.6,321.6z M229.4,346.5
			c-3.7,1.6-8,0-9.6-3.7c-1.6-3.7,0-8,3.7-9.6c3.7-1.6,8,0,9.6,3.7C234.8,340.6,233.1,344.9,229.4,346.5L229.4,346.5z M229.4,346.5"
			/>
		<path class="st31" d="M189.3,371c-1,0.5-1.6,1.7-1.2,2.8l0.7,2.2c0.4,1.1,1.5,1.7,2.6,1.5l1.7-0.3c0.6,0.9,1.3,1.7,2.1,2.4
			l-0.6,1.6c-0.4,1.1,0.1,2.3,1.1,2.8l2,1c1,0.5,2.3,0.2,2.9-0.8l0.9-1.4c1.1,0.2,2.2,0.3,3.3,0.3l0.7,1.6c0.5,1,1.7,1.6,2.8,1.2
			l2.2-0.7c1.1-0.4,1.7-1.5,1.5-2.6l-0.3-1.6c1-0.6,1.9-1.4,2.7-2.3l1.5,0.6c1.1,0.4,2.3-0.1,2.8-1.1l1-2c0.5-1,0.2-2.3-0.8-2.9
			l-1.3-0.9c0.2-1.1,0.3-2.3,0.3-3.4l1.4-0.6c1-0.5,1.6-1.7,1.2-2.8l-0.7-2.2c-0.4-1.1-1.5-1.7-2.6-1.5l-1.4,0.3
			c-0.6-1-1.4-1.8-2.2-2.6l0.5-1.4c0.4-1.1-0.1-2.3-1.1-2.8l-2-1c-1-0.5-2.3-0.2-2.9,0.8l-0.8,1.2c-1.2-0.3-2.4-0.3-3.6-0.3
			l-0.6-1.3c-0.5-1-1.7-1.6-2.8-1.2l-2.2,0.7c-1.1,0.4-1.7,1.5-1.5,2.6l0.3,1.4c-1,0.7-2,1.5-2.8,2.4l-1.4-0.5
			c-1.1-0.4-2.3,0.1-2.8,1.1l-1,2.1c-0.5,1-0.2,2.3,0.8,2.9l1.3,0.9c-0.2,1.1-0.3,2.3-0.2,3.4L189.3,371z M202.4,363.7
			c3.1-1,6.5,0.6,7.5,3.8c1,3.1-0.6,6.5-3.8,7.5c-3.1,1-6.5-0.7-7.5-3.8C197.6,368.1,199.3,364.8,202.4,363.7L202.4,363.7z
			 M202.4,363.7"/>
	</g>
	<g>
		<g>
			<path class="st30" d="M439.1,301.2c-4.3-1.8-9.1-1.2-12.8,1.1c0,0-1.3,0.8-2.5,0.3c-1.2-0.5-1.5-2-1.5-2
				c-0.9-4.3-3.8-8.1-8.2-9.9c-7-2.9-15.1,0.4-18,7.4c-0.7,1.7-1,3.4-1.1,5.1c-1.1,12.5,9.4,32.2,14,34.6c5,1.5,26.3-4.8,34.5-14.3
				c1.2-1.2,2.2-2.6,2.9-4.3C449.4,312.1,446.1,304.1,439.1,301.2L439.1,301.2z M439.1,301.2"/>
		</g>
	</g>
	<g>
		<g>
			<g>
				<path class="st31" d="M398.7,414.6c-9.3,1.1-18.6,0.9-27.8-0.6l2.5-15.1c7.7,1.3,15.6,1.5,23.4,0.5c40.1-4.9,70.3-37.7,71.8-78
					l15.3,0.6c-0.8,22.8-9.8,44.7-25.3,61.7C443,400.7,421.7,411.7,398.7,414.6z"/>
			</g>
			<g>
				<g>
					<polygon class="st31" points="498.9,325.7 471.4,288.9 453.3,331.1 					"/>
				</g>
			</g>
		</g>
	</g>
	<g>
		<g>
			<g>
				<path class="st35" d="M141.3,33.7c9.3-1.1,18.6-0.9,27.8,0.6l-2.5,15.1c-7.7-1.3-15.6-1.5-23.4-0.5c-40.1,4.9-70.3,37.7-71.8,78
					l-15.3-0.6c0.8-22.8,9.8-44.7,25.3-61.7C97,47.5,118.3,36.5,141.3,33.7z"/>
			</g>
			<g>
				<g>
					<polygon class="st35" points="41.1,122.6 68.6,159.3 86.7,117.1 					"/>
				</g>
			</g>
		</g>
	</g>
</g>
</svg>
