<svg height="464pt" viewBox="0 0 464 464" width="464pt" xmlns="http://www.w3.org/2000/svg"><path d="m410 278.71875c-4.253906 16.15625-10.6875 31.660156-19.121094 46.082031l33.441406 42.960938-48.320312 48.316406-8.238281 8.242187-42.960938-33.441406c-14.421875 8.433594-29.925781 14.867188-46.082031 19.121094l-.71875 6-6 48h-80l-6-48-.71875-6c-16.15625-4.253906-31.660156-10.6875-46.082031-19.121094l-42.960938 33.441406-8.238281-8.242187-48.320312-48.316406 33.441406-42.960938c-8.433594-14.421875-14.867188-29.925781-19.121094-46.082031l-54-6.71875v-80l54-6.71875c4.253906-16.15625 10.6875-31.660156 19.121094-46.082031l-33.441406-42.960938 56.558593-56.558593 42.960938 33.441406c14.421875-8.433594 29.925781-14.867188 46.082031-19.121094l6.71875-54h80l6.71875 54c16.15625 4.253906 31.660156 10.6875 46.082031 19.121094l42.960938-33.441406 56.558593 56.558593-33.441406 42.960938c8.433594 14.421875 14.867188 29.925781 19.121094 46.082031l54 6.71875v80zm0 0" fill="#ff9811"/><path d="m353.601562 192c-19.636718-59.742188-79.761718-96.371094-141.855468-86.417969-62.09375 9.949219-107.761719 63.53125-107.746094 126.417969 0 2.71875.078125 5.359375.238281 8 4.140625 67.523438 60.113281 120.164062 127.761719 120.164062s123.621094-52.640624 127.761719-120.164062c.160156-2.640625.238281-5.28125.238281-8 .019531-13.589844-2.140625-27.09375-6.398438-40zm0 0" fill="#ffd422"/><path d="m376 240v208c-.027344 8.824219-7.175781 15.972656-16 16h-256c-8.824219-.027344-15.972656-7.175781-16-16v-208zm0 0" fill="#5aaae7"/><path d="m360 192h-256c-8.824219.027344-15.972656 7.175781-16 16v32h288v-32c-.027344-8.824219-7.175781-15.972656-16-16zm0 0" fill="#ff6243"/><path d="m128 288h208v64h-208zm0 0" fill="#ffa733"/><g fill="#cc7400"><path d="m224 40h16v16h-16zm0 0"/><path d="m90.582031 101.890625 11.3125-11.3125 11.3125 11.3125-11.3125 11.3125zm0 0"/><path d="m40 224h16v16h-16zm0 0"/><path d="m408 224h16v16h-16zm0 0"/><path d="m350.800781 101.894531 11.316407-11.3125 11.3125 11.3125-11.3125 11.316407zm0 0"/></g><path d="m120 376h96v16h-96zm0 0" fill="#1e81ce"/><path d="m120 408h96v16h-96zm0 0" fill="#1e81ce"/><path d="m248 376h96v16h-96zm0 0" fill="#1e81ce"/><path d="m248 408h96v16h-96zm0 0" fill="#1e81ce"/><path d="m112 208h16v16h-16zm0 0" fill="#cd2a00"/><path d="m144 208h16v16h-16zm0 0" fill="#cd2a00"/><path d="m176 208h16v16h-16zm0 0" fill="#cd2a00"/><path d="m176 312h16v16h-16zm0 0" fill="#cc7400"/><path d="m208 312h16v16h-16zm0 0" fill="#cc7400"/><path d="m240 312h16v16h-16zm0 0" fill="#cc7400"/><path d="m272 312h16v16h-16zm0 0" fill="#cc7400"/></svg>