<svg id="flat" height="512" viewBox="0 0 512 512" width="512" xmlns="http://www.w3.org/2000/svg"><path d="m80 336h24v32h-24z" fill="#ffbfa1" transform="matrix(-1 0 0 -1 184 704)"/><path d="m112 328h-24l-8 8v8a16 16 0 0 0 16 16 16 16 0 0 0 16-16z" fill="#ffceb6"/><path d="m80 336v-16a16 16 0 0 1 16-16h12.6863a11.31369 11.31369 0 0 1 11.3137 11.3137 11.31372 11.31372 0 0 1 -3.31371 8l-4.68629 4.6863h-24z" fill="#c47220"/><path d="m248 432v32h-64l-48-56v88h-104v-70.52a41.1121 41.1121 0 0 1 33.10986-65.48h63.24024a32.01468 32.01468 0 0 1 25.25976 12.3501l46.39014 59.6499z" fill="#ffb401"/><path d="m104 392 8 40h-32l8-40z" fill="#f5714f"/><path d="m88 392-8-16 16-16 16 16-8 16z" fill="#ef5e3b"/><path d="m127.99979 384.00028a7.99968 7.99968 0 0 1 -11.1995 1.59986l-20.80029-15.60014-20.80028 15.60016a7.99968 7.99968 0 0 1 -11.1995-1.59986 7.99969 7.99969 0 0 1 1.6003-11.2l17.0694-12.8003h26.66016l17.06941 12.80033a7.99969 7.99969 0 0 1 1.6003 11.19995z" fill="#ffa100"/><path d="m128.00045 472h-49.01136a40.00108 40.00108 0 0 1 -30.72932-14.39258l-17.28483-20.74118a7.99955 7.99955 0 0 1 1.02426-11.26678 7.99955 7.99955 0 0 1 11.26644 1.02423l17.28413 20.74031a24.00188 24.00188 0 0 0 18.43851 8.636h49.01217a7.99955 7.99955 0 0 1 7.99955 7.99955v.0009a7.99955 7.99955 0 0 1 -7.99955 7.99955z" fill="#ffa100"/><path d="m136 432h16a24 24 0 0 1 24 24v8h-40z" fill="#ffceb6"/><path d="m128.00045 440h-48.00045a8.0005 8.0005 0 0 1 -6.40039-3.2002l-19.2-25.60005a7.99954 7.99954 0 0 1 1.60022-11.19959l.001-.00076a7.99955 7.99955 0 0 1 11.19908 1.60018l16.80009 22.40042h44.00045a7.99955 7.99955 0 0 1 7.99955 7.99955v.0009a7.99955 7.99955 0 0 1 -7.99955 7.99955z" fill="#ffa100"/><path d="m240 488h-104a16 16 0 0 1 -16-16v-8h120z" fill="#4976f2"/><path d="m280 488 32-88h-64l-32 88z" fill="#548aff"/><path d="m168 72v-32a16 16 0 0 1 16-16h288a16 16 0 0 1 16 16v32z" fill="#7dafff"/><path d="m168 72h320v264a16 16 0 0 1 -16 16h-288a16 16 0 0 1 -16-16z" fill="#548aff"/><path d="m200 104h104v112h-104z" fill="#d1e4ff"/><path d="m240 176 40-40 24 24v56h-64z" fill="#02c26a"/><path d="m336 248h120v72h-120z" fill="#91c0ff"/><g fill="#4976f2"><path d="m328 104h24v16h-24z"/><path d="m368 104h88v16h-88z"/><path d="m328 136h80v16h-80z"/><path d="m424 136h32v16h-32z"/><path d="m328 168h48v16h-48z"/><path d="m392 168h64v16h-64z"/><path d="m328 200h80v16h-80z"/><path d="m424 200h32v16h-32z"/><path d="m200 240h24v16h-24z"/><path d="m240 240h64v16h-64z"/><path d="m200 272h56v16h-56z"/><path d="m272 272h32v16h-32z"/><path d="m200 304h32v16h-32z"/><path d="m248 304h56v16h-56z"/></g><circle cx="192" cy="48" fill="#f5714f" r="8"/><circle cx="216" cy="48" fill="#ffc431" r="8"/><circle cx="240" cy="48" fill="#3cde8d" r="8"/><path d="m296 216-72-56-24 24v32z" fill="#08d175"/></svg>