<svg height="512" viewBox="0 0 64 64" width="512" xmlns="http://www.w3.org/2000/svg"><path d="m57 22v10h-27l-13-13h-14v-10a2.006 2.006 0 0 1 2-2h12l13 13h25a2 2 0 0 1 1.97 1.68 1.655 1.655 0 0 1 .03.32z" fill="#ee8700"/><path d="m49 3h-38a2.006 2.006 0 0 0 -2 2v14h8l13 13h21v-27a2.006 2.006 0 0 0 -2-2z" fill="#e6e7e8"/><path d="m51 20h2v12h-2z" fill="#cc7400"/><path d="m57 32v27a2.006 2.006 0 0 1 -2 2h-50a2.006 2.006 0 0 1 -2-2v-40h14l13 13z" fill="#ff9811"/><path d="m49.75 32-10.1 14.41-.57.82-1.75 1.3-1.33 4.47 5.08-3.77.57-.82 11.497-16.41z" fill="#ee8700"/><path d="m57 26.5v-4.5a1.655 1.655 0 0 0 -.03-.32l-.68.98-5.29 7.55-1.25 1.79h3.4z" fill="#cc7400"/><circle cx="19" cy="45" fill="#ffd422" r="8"/><path d="m45 3v10l-3-4-3 4v-10z" fill="#ff5023"/><path d="m7 7h2v12h-2z" fill="#cc7400"/><path d="m55.3 17.09-2.03 2.91-.26.36 3.28 2.3.68-.98 1.61-2.3z" fill="#e6e7e8"/><path d="m61.24 14.96a2 2 0 0 1 -.36 1.14l-2.3 3.28-3.28-2.29 2.3-3.28a2 2 0 0 1 3.64 1.15z" fill="#3d9ae2"/><path d="m53.01 20.36-2.01 2.87-6.14 8.77-8.48 12.12 3.27 2.29 10.1-14.41 1.25-1.79 5.29-7.55z" fill="#3d9ae2"/><path d="m39.65 46.41-.57.82-5.08 3.77 1.8-6.06.58-.82z" fill="#1e81ce"/><g fill="#bcbec0"><path d="m14 8h6v2h-6z"/><path d="m22 8h8v2h-8z"/><path d="m14 12h16v2h-16z"/><path d="m22 18h18v2h-18z"/><path d="m26 22h20v2h-20z"/><path d="m42 18h4v2h-4z"/><path d="m30 26h14v2h-14z"/></g><path d="m19 50a5 5 0 1 1 3.75-8.307l-1.5 1.323a3 3 0 1 0 0 3.968l1.5 1.323a5 5 0 0 1 -3.75 1.693z" fill="#ff5023"/><path d="m19 54a9 9 0 1 1 9-9 9.011 9.011 0 0 1 -9 9zm0-16a7 7 0 1 0 7 7 7.008 7.008 0 0 0 -7-7z" fill="#ff5023"/></svg>