<svg height="512" viewBox="0 0 64 64" width="512" xmlns="http://www.w3.org/2000/svg"><g id="computer-pencil-copywriting-editing-writing"><path d="m5 16h54a2 2 0 0 1 2 2v30a0 0 0 0 1 0 0h-58a0 0 0 0 1 0 0v-30a2 2 0 0 1 2-2z" fill="#2488ff"/><path d="m29 52h6v5h-6z" fill="#e9e9ea"/><path d="m22 57h20v4h-20z" fill="#898890"/><path d="m3 48h58a0 0 0 0 1 0 0v2a2 2 0 0 1 -2 2h-54a2 2 0 0 1 -2-2v-2a0 0 0 0 1 0 0z" fill="#787680"/><path d="m53 3a5.37 5.37 0 0 0 -4 2v39h-39v-37a4 4 0 0 1 4-4z" fill="#f5e0ad"/><path d="m57 7v5h-8v-5a4 4 0 1 1 8 0z" fill="#eb9a43"/><path d="m53 25v3h-8v-3a4 4 0 1 1 8 0z" fill="#e9e9ea"/><path d="m53 51-4 6-4-6 2-2 2 2 2-2z" fill="#e9e9ea"/><path d="m53 32v19l-2-2-2 2-2-2-2 2v-19z" fill="#dd636e"/><path d="m45 28h8v4h-8z" fill="#365e7d"/><g fill="#1a6fb0"><path d="m14 7h31v2h-31z"/><path d="m14 12h31v2h-31z"/><path d="m14 17h27v2h-27z"/><path d="m14 22h27v2h-27z"/><path d="m14 27h27v2h-27z"/><path d="m14 32h27v2h-27z"/><path d="m14 37h27v2h-27z"/></g></g></svg>