<svg enable-background="new 0 0 140 140" height="512" viewBox="0 0 140 140" width="512" xmlns="http://www.w3.org/2000/svg"><circle cx="70" cy="70" fill="#de594e" r="64"/><path d="m109.4114456 36.7890549-.1799927-.1799316h-.0100098c-.5299683-.4500732-1.1900024-.7200928-1.9199829-.7200928h-74.5999755c-1.7100201 0-3.0800152 1.3800049-3.0800152 3.5200195v51.8200073c0 1.0199585.4899902 1.8999634 1.2399902 2.4699707l40.2722778 40.2722702c34.821106-.6073608 62.8662796-29.0053635 62.8662796-63.9713058 0-3.1629028-.2387695-6.2693481-.6818848-9.3093262l-23.816658-23.8215332c-.0300311-.0300293-.0599994-.0500488-.0900287-.0800781z" opacity=".1"/><path d="m56.495384 89.814041h26.992106v14.575737h-26.992106z" fill="#344d5b"/><path d="m86.127449 101.6694794h-32.2549743c-1.681221 0-3.0441284 1.3629074-3.0441284 3.0441437v2.3964539h38.3432617v-2.3964539c0-1.6812363-1.3629151-3.0441437-3.044159-3.0441437z" fill="#3a556a"/><path d="m107.3014297 35.8936577h-74.6028747c-1.7048092 0-3.0777283 1.3729172-3.0777283 3.5175133v50.131546h80.7583313v-50.131546c0-2.1445961-1.3729172-3.5175133-3.0777283-3.5175133z" fill="#344d5b"/><path d="m34.263805 40.112541h71.472336v42.929691h-71.472336z" fill="#ebf0f3"/><path d="m29.6208267 87.6867523v3.5443497c0 1.7048645 1.3729191 3.0777817 3.0777283 3.0777817h74.6028748c1.7048111 0 3.0777283-1.3729172 3.0777283-3.0777817v-3.5443497z" fill="#ededed"/><path d="m69.9999924 88.1419754c-.9234924 0-1.6721725.7485657-1.6721725 1.6720657 0 .923439.7486801 1.6720581 1.6721725 1.6720581.9233856 0 1.6720581-.7486191 1.6720581-1.6720581 0-.9235-.7486725-1.6720657-1.6720581-1.6720657z" fill="#ebf0f3"/><path d="m39.991257 46.293594h19.481817v17.127937h-19.481817z" fill="#4288b9"/><g fill="#d5d6db"><path d="m39.987236 69.422707h60.357483v1.703149h-60.357483z"/><path d="m39.987236 77.127083h60.357483v1.703149h-60.357483z"/><path d="m63.188675 46.293594h37.15604v1.71119h-37.15604z"/><path d="m63.188675 61.710339h37.15604v1.71119h-37.15604z"/><path d="m63.188675 54.005962h37.15604v1.703149h-37.15604z"/></g><path d="m42.5317383 58.7114563 2.9600868-7.7077904h1.0988617l3.1546211 7.7077904h-1.161953l-.8990669-2.3344193h-3.2229729l-.846489 2.3344193zm2.2240104-3.1651344h2.6130791l-.8044319-2.1346283c-.2453575-.6484528-.4276237-1.1812325-.5467987-1.5983429-.0981445.4942245-.236599.9849434-.4153595 1.4721565z" fill="#ededed"/><path d="m50.5602531 58.7114563v-7.7077904h2.6551399c.5993767 0 1.056797.0368042 1.372261.1104088.4416466.1016502.8184471.2856712 1.1304054.5520592.4065971.3435059.7106667.7825241.9122124 1.3170547.2015457.5345345.3023186 1.1453056.3023186 1.8323097 0 .5853577-.0683517 1.1041183-.2050514 1.556282s-.3119583.8263359-.5257721 1.1225204c-.21381.2961845-.4477806.529274-.7019005.6992722-.2541237.170002-.5608215.2988129-.9201012.3864441-.3592758.0876274-.7720032.1314392-1.2381859.1314392h-2.7813262zm1.0199929-.9095802h1.6456604c.5082474 0 .9069557-.0473213 1.1961288-.1419601s.5196381-.2278328.6913872-.3995857c.2418556-.2418518.4302559-.5669556.5652046-.9753036s.2024231-.9034462.2024231-1.4852982c0-.8061829-.1323204-1.4257164-.3969574-1.8586006s-.586235-.7229347-.9647903-.8701477c-.2733994-.1051559-.713295-.1577339-1.3196831-.1577339h-1.6193733z" fill="#ededed"/><path d="m89.349472 64.8932419-17.6774215-4.360817 4.3608169 17.6774216 4.5928421-4.5928345 5.9376984 5.9376908 4.1309357-4.1309357-5.9376984-5.9376984z" fill="#344d5b"/></svg>