<svg id="Capa_1" enable-background="new 0 0 497 497" height="512" viewBox="0 0 497 497" width="512" xmlns="http://www.w3.org/2000/svg"><g><g><path d="m411.352 497h-325.704c-8.603 0-15.577-6.974-15.577-15.577v-465.846c0-8.603 6.974-15.577 15.577-15.577h325.704c8.603 0 15.577 6.974 15.577 15.577v465.846c0 8.603-6.974 15.577-15.577 15.577z" fill="#f7f7f7"/></g><g><path d="m411.352 0h-30c8.603 0 15.577 6.974 15.577 15.577v465.846c0 8.603-6.974 15.577-15.577 15.577h30c8.603 0 15.577-6.974 15.577-15.577v-465.846c0-8.603-6.974-15.577-15.577-15.577z" fill="#e8e8e8"/></g><g><ellipse cx="113.771" cy="45.25" fill="#dbb72b" rx="15.8" ry="15.8" transform="matrix(.922 -.386 .386 .922 -8.648 47.475)"/></g><g><ellipse cx="113.771" cy="249.395" fill="#dbb72b" rx="15.8" ry="15.8" transform="matrix(.161 -.987 .987 .161 -150.685 321.536)"/></g><g><ellipse cx="113.771" cy="452.539" fill="#dbb72b" rx="15.8" ry="15.8" transform="matrix(.161 -.987 .987 .161 -351.181 491.98)"/></g><g><path d="m313.039 176.949h-124.256c-7.183 0-13.005-5.823-13.005-13.005v-33.499c0-7.182 5.823-13.005 13.005-13.005h124.256c7.183 0 13.005 5.823 13.005 13.005v33.499c0 7.182-5.823 13.005-13.005 13.005z" fill="#b1abb4"/></g><g><path d="m313.039 117.439h-30c7.183 0 13.005 5.823 13.005 13.005v33.499c0 7.183-5.823 13.005-13.005 13.005h30c7.183 0 13.005-5.823 13.005-13.005v-33.499c0-7.182-5.823-13.005-13.005-13.005z" fill="#a29aa5"/></g><g><path d="m287.965 153.06h-74.108c-4.142 0-7.5-3.358-7.5-7.5s3.358-7.5 7.5-7.5h74.108c4.142 0 7.5 3.358 7.5 7.5s-3.358 7.5-7.5 7.5z" fill="#c8c3ca"/></g><g><g><path d="m326.044 247.674h-150.266c-4.142 0-7.5-3.358-7.5-7.5s3.358-7.5 7.5-7.5h150.267c4.142 0 7.5 3.358 7.5 7.5-.001 4.142-3.359 7.5-7.501 7.5z" fill="#c8c3ca"/></g><g><path d="m295.492 274.201h-89.162c-4.142 0-7.5-3.358-7.5-7.5s3.358-7.5 7.5-7.5h89.162c4.142 0 7.5 3.358 7.5 7.5s-3.358 7.5-7.5 7.5z" fill="#c8c3ca"/></g><g><path d="m326.044 330.969h-150.266c-4.142 0-7.5-3.358-7.5-7.5s3.358-7.5 7.5-7.5h150.267c4.142 0 7.5 3.358 7.5 7.5-.001 4.142-3.359 7.5-7.501 7.5z" fill="#c8c3ca"/></g><g><path d="m295.492 357.496h-89.162c-4.142 0-7.5-3.358-7.5-7.5s3.358-7.5 7.5-7.5h89.162c4.142 0 7.5 3.358 7.5 7.5s-3.358 7.5-7.5 7.5z" fill="#c8c3ca"/></g></g></g></svg>