<svg id="flat" height="512" viewBox="0 0 512 512" width="512" xmlns="http://www.w3.org/2000/svg"><path d="m208 72h280v416h-280z" fill="#548aff"/><path d="m24 344v-117.18609a50.81391 50.81391 0 0 1 50.81391-50.81391h141.18609v48h-56v120z" fill="#ffc431"/><path d="m304 288-3.33 33.33-4.67 46.67-56-56-75.17-190.81-13.04-33.11-15.79-40.08 64-24 15.79 40.08 13.04 33.1z" fill="#ef5e3b"/><path d="m225.591 79.976h16v235.733h-16z" fill="#e04f2b" transform="matrix(.931 -.364 .364 .931 -56.033 98.724)"/><path d="m128 144v36a20.24728 20.24728 0 0 1 -.4 4 20.00255 20.00255 0 0 1 -39.6-4v-36z" fill="#ffceb6"/><path d="m128 144v36a20.24728 20.24728 0 0 1 -.4 4h-11.6a19.9945 19.9945 0 0 1 -20-20v-20z" fill="#ffbfa1"/><path d="m112 176a24 24 0 0 1 -24-24v-8l16-16h32v24a24 24 0 0 1 -24 24z" fill="#ffceb6"/><path d="m136 128 6.63344-13.26688a12.94424 12.94424 0 0 0 1.36656-5.78885 12.94426 12.94426 0 0 0 -12.94426-12.94427h-19.05574a24 24 0 0 0 -24 24v24l16-16z" fill="#c47220"/><path d="m261.32 248.01-33.76 25.32-26.82 20.12a92.7829 92.7829 0 0 1 -102.4 5.91l-46.91-27.36 20.57-56 72 48 56-32 14.69-36.72a5.21431 5.21431 0 0 1 4.84-3.28h.71a5.22061 5.22061 0 0 1 4.95 3.56l6.81 20.44 24-8 10.03 20.06a15.9995 15.9995 0 0 1 -4.71 19.95z" fill="#ffceb6"/><path d="m280 168h-40a16 16 0 0 1 -16-16v-32h24v-18.7889a5.2111 5.2111 0 0 1 5.2111-5.2111 5.2111 5.2111 0 0 1 4.33589 2.3205l14.45301 21.6795h8a16 16 0 0 1 16 16v16a16 16 0 0 1 -16 16z" fill="#ffceb6"/><path d="m304 288-3.33 33.33-4.67 46.67-56-56z" fill="#ffceb6"/><path d="m228.83 97.18-64 24.01-13.04-33.11 64-24z" fill="#ffc431"/><path d="m300.67 321.33-4.67 46.67-32-32z" fill="#62798c"/><path d="m328 120h128v104h-128z" fill="#a6cfff"/><path d="m456 184-32-32-48 40v32h80z" fill="#02c26a"/><g fill="#4367e0"><path d="m328 272h40v16h-40z"/><path d="m384 272h72v16h-72z"/><path d="m328 304h88v16h-88z"/><path d="m432 304h24v16h-24z"/><path d="m328 336h56v16h-56z"/><path d="m400 336h56v16h-56z"/><path d="m240 368h112v16h-112z"/><path d="m368 368h88v16h-88z"/><path d="m240 400h80v16h-80z"/><path d="m336 400h56v16h-56z"/><path d="m408 400h16v16h-16z"/><path d="m240 432h40v16h-40z"/><path d="m296 432h72v16h-72z"/><path d="m384 432h72v16h-72z"/></g><path d="m227.56 273.33-26.82 20.12a92.7829 92.7829 0 0 1 -102.4 5.91l-46.91-27.36 20.57-56 72 48 56-32z" fill="#ffc431"/><path d="m24 344v152h48l24-104 8 104h56v-152z" fill="#718799"/><path d="m145.07861 320a100.86722 100.86722 0 0 1 -50.772-13.72607l-39.99935-23.333a7.99927 7.99927 0 0 1 -2.87885-10.94044l.0008-.00136a7.99925 7.99925 0 0 1 10.94009-2.87873l39.99932 23.33324a84.855 84.855 0 0 0 42.70999 11.54636c2.14083 0 4.289-.08211 6.43121-.24521a7.96771 7.96771 0 0 1 8.43353 6.68964 8.02258 8.02258 0 0 1 -7.3562 9.27452c-2.50127.18697-5.00907.28105-7.50854.28105z" fill="#ffb401"/><path d="m144.00049 272a7.99387 7.99387 0 0 1 -4.438-1.34375l-65.34421-43.5628a7.99927 7.99927 0 0 1 -2.21859-11.093l.00061-.00093a7.99927 7.99927 0 0 1 11.093-2.2186l61.23044 40.82014 4.76184-2.72113a7.99926 7.99926 0 0 1 10.91406 2.97635l.00065.00113a7.99927 7.99927 0 0 1 -2.9764 10.91418l-9.05464 5.1742a7.98978 7.98978 0 0 1 -3.96876 1.05421z" fill="#ffb401"/><path d="m215.79 64.08-64 24-15.79-40.08 64-24z" fill="#d1e4ff"/><path d="m424 224-64-48-32 24v24z" fill="#08d175"/></svg>