<svg id="Repair_Service" height="512" viewBox="0 0 64 64" width="512" xmlns="http://www.w3.org/2000/svg" xmlns:xlink="http://www.w3.org/1999/xlink" data-name="Repair Service"><linearGradient id="New_Gradient_Swatch_1" gradientUnits="userSpaceOnUse" x1="2.864" x2="54.311" y1="66.075" y2="12.97"><stop offset="0" stop-color="#fff200"/><stop offset="1" stop-color="#cd118c"/></linearGradient><linearGradient id="New_Gradient_Swatch_1-2" x1="2.941" x2="54.387" xlink:href="#New_Gradient_Swatch_1" y1="66.149" y2="13.043"/><linearGradient id="New_Gradient_Swatch_1-3" x1=".865" x2="52.312" xlink:href="#New_Gradient_Swatch_1" y1="64.139" y2="11.033"/><linearGradient id="New_Gradient_Swatch_1-4" x1="-23.526" x2="27.921" xlink:href="#New_Gradient_Swatch_1" y1="40.51" y2="-12.596"/><linearGradient id="New_Gradient_Swatch_1-5" x1="-21.462" x2="29.984" xlink:href="#New_Gradient_Swatch_1" y1="42.509" y2="-10.597"/><linearGradient id="New_Gradient_Swatch_1-6" x1="-19.399" x2="32.048" xlink:href="#New_Gradient_Swatch_1" y1="44.508" y2="-8.598"/><path d="m47 19h-30a3 3 0 0 0 -3 3v28a3 3 0 0 0 3 3h30a3 3 0 0 0 3-3v-28a3 3 0 0 0 -3-3zm1 31a1 1 0 0 1 -1 1h-30a1 1 0 0 1 -1-1v-28a1 1 0 0 1 1-1h30a1 1 0 0 1 1 1z" fill="url(#New_Gradient_Swatch_1)"/><path d="m45.485 27.515a4 4 0 0 0 -6.828-2.828l-6 6a2.9 2.9 0 0 1 -.146-.915 6.938 6.938 0 0 0 -2.045-5.042 7.017 7.017 0 0 0 -7.966-1.352 1 1 0 0 0 -.273 1.61l3.56 3.552-.357 1.06-1.061.355-3.562-3.562a1.009 1.009 0 0 0 -.875-.279 1 1 0 0 0 -.734.554 7.076 7.076 0 0 0 .636 7.124 6.968 6.968 0 0 0 5.658 2.888 3.212 3.212 0 0 1 1.946.639l-1.923 1.924h-1a1 1 0 0 0 -.814.419l-3.535 4.949a1 1 0 0 0 .106 1.288l2.828 2.829a1 1 0 0 0 1.288.107l4.95-3.536a1 1 0 0 0 .419-.814v-1l1.951-1.951 5.824 5.833a3.971 3.971 0 0 0 2.828 1.173 4.005 4.005 0 0 0 2.84-6.84l-5.122-5.122 6.238-6.238a3.971 3.971 0 0 0 1.169-2.825zm-19.96 7.165h-.025a4.971 4.971 0 0 1 -4.931-5.7l2.827 2.826a1 1 0 0 0 1.024.241l2.12-.71a1 1 0 0 0 .631-.63l.71-2.121a1 1 0 0 0 -.242-1.025l-2.826-2.82a5.014 5.014 0 0 1 4.243 1.4 4.959 4.959 0 0 1 1.457 3.6 4.947 4.947 0 0 0 .63 2.453l-.261.261a1 1 0 0 0 0 1.414l-2.028 2.031a5.081 5.081 0 0 0 -3.329-1.22zm2.526 7.684a1 1 0 0 0 -.293.707v.9l-3.842 2.744-1.631-1.631 2.744-3.841h.9a1 1 0 0 0 .707-.293l5.657-5.657 1.414 1.414zm13.732.753a2.012 2.012 0 0 1 .006 2.83 2.055 2.055 0 0 1 -2.841.007l-5.825-5.834 2-2a1 1 0 0 0 1.414 0l.126-.126zm1.117-14.188-7.072 7.071-2.828-2.829 7.071-7.07a2.047 2.047 0 0 1 2.828 0 2 2 0 0 1 0 2.828z" fill="url(#New_Gradient_Swatch_1-2)"/><path d="m61 4h-58a1 1 0 0 0 -1 1v54a1 1 0 0 0 1 1h58a1 1 0 0 0 1-1v-54a1 1 0 0 0 -1-1zm-1 54h-56v-44h56zm0-46h-56v-6h56z" fill="url(#New_Gradient_Swatch_1-3)"/><path d="m6 8h2v2h-2z" fill="url(#New_Gradient_Swatch_1-4)"/><path d="m10 8h2v2h-2z" fill="url(#New_Gradient_Swatch_1-5)"/><path d="m14 8h2v2h-2z" fill="url(#New_Gradient_Swatch_1-6)"/></svg>