<?xml version="1.0" encoding="iso-8859-1"?>
<!-- Generator: Adobe Illustrator 19.0.0, SVG Export Plug-In . SVG Version: 6.00 Build 0)  -->
<svg version="1.1" id="Capa_1" xmlns="http://www.w3.org/2000/svg" xmlns:xlink="http://www.w3.org/1999/xlink" x="0px" y="0px"
	 viewBox="0 0 512 512" style="enable-background:new 0 0 512 512;" xml:space="preserve">
<path style="fill:#7DBFEC;" d="M506.791,398.995l-34.968,22.864h-90.656V369.32h90.656l34.968,22.864
	C509.247,393.79,509.247,397.389,506.791,398.995z"/>
<path style="fill:#8BB1EA;" d="M506.791,392.184l-14.88-9.729l-20.089,13.135h-90.656v26.27h90.656l34.968-22.864
	C509.247,397.389,509.247,393.79,506.791,392.184z"/>
<path style="fill:#F3D064;" d="M129.803,369.32v50.479H11.672C5.223,419.799,0,414.576,0,408.127v-27.135
	c0-6.449,5.223-11.672,11.672-11.672L129.803,369.32L129.803,369.32z"/>
<path style="fill:#EDBD41;" d="M0,385.978v22.149c0,6.449,5.223,11.672,11.672,11.672h118.131V397.65H11.672
	C5.223,397.65,0,392.427,0,385.978z"/>
<path style="fill:#C7CFCF;" d="M126.712,252.909v31.936l-51.282,0.093c-6.717,14.824-21.624,25.147-38.961,25.147h-6.706
	c-16.205,0-29.34-13.135-29.34-29.34H33.12l10.899-13.413L33.12,253.919H0.422c0-16.205,13.135-29.34,29.34-29.34h6.706
	c18.615,0,34.439,11.899,40.311,28.505L126.712,252.909z"/>
<path style="fill:#B4BFBD;" d="M43.62,267.732l-10.899,13.413H0.023c0,16.205,13.135,29.34,29.34,29.34h6.706
	c17.338,0,32.245-10.322,38.961-25.147l51.282-0.093v-17.513H43.62z"/>
<path style="fill:#F4F5F5;" d="M452.61,75.718H295.301c-7.768,0-14.062,6.294-14.062,14.062v78.654v54.604l108.169,1.026h63.202
	c7.768,0,14.062-6.294,14.062-14.062V89.78C466.672,82.013,460.378,75.718,452.61,75.718z"/>
<path style="fill:#E8E9E9;" d="M351.93,223.038v-54.604V89.78c0-7.768,6.294-14.062,14.062-14.062h-70.691
	c-7.768,0-14.062,6.294-14.062,14.062v78.654v54.604H351.93z"/>
<path style="fill:#717483;" d="M389.408,184.814v235.087c0,9.045-7.335,16.38-16.38,16.38H137.941c-9.045,0-16.38-7.335-16.38-16.38
	V184.814c0-9.045,7.335-16.38,16.38-16.38h235.087C382.074,168.435,389.408,175.77,389.408,184.814z"/>
<path style="fill:#4C5574;" d="M244.668,419.902V184.814c0-9.045,7.335-16.38,16.38-16.38H137.941c-9.045,0-16.38,7.335-16.38,16.38
	v235.087c0,9.045,7.335,16.38,16.38,16.38h123.107C252.003,436.282,244.668,428.947,244.668,419.902z"/>
<path style="fill:#FF395E;" d="M452.61,75.718H295.301c-7.768,0-14.062,6.294-14.062,14.062v21.994h185.433V89.78
	C466.672,82.013,460.378,75.718,452.61,75.718z"/>
<path style="fill:#B12E65;" d="M351.93,89.78c0-7.768,6.294-14.062,14.062-14.062h-70.691c-7.768,0-14.062,6.294-14.062,14.062
	v21.994h70.691V89.78z"/>
<path style="fill:#F4F5F5;" d="M363.654,197.026V407.69c0,1.567-1.27,2.837-2.837,2.837H150.153c-1.567,0-2.837-1.27-2.837-2.837
	V197.026c0-1.567,1.27-2.837,2.837-2.837h210.664C362.384,194.189,363.654,195.459,363.654,197.026z"/>
<g>
	<path style="fill:#E0E6E6;" d="M255.485,418.254c-63.905,0-115.895-51.99-115.895-115.895s51.99-115.895,115.895-115.895
		s115.895,51.99,115.895,115.895S319.39,418.254,255.485,418.254z M255.485,201.915c-55.385,0-100.443,45.058-100.443,100.443
		S200.1,402.801,255.485,402.801s100.443-45.058,100.443-100.443S310.869,201.915,255.485,201.915z"/>
	<path style="fill:#E0E6E6;" d="M255.485,389.408c-48,0-87.05-39.051-87.05-87.05s39.05-87.05,87.05-87.05s87.05,39.051,87.05,87.05
		S303.485,389.408,255.485,389.408z M255.485,230.761c-39.479,0-71.598,32.119-71.598,71.598s32.119,71.598,71.598,71.598
		c39.479,0,71.598-32.119,71.598-71.598S294.964,230.761,255.485,230.761z"/>
	<rect x="195.219" y="194.189" style="fill:#E0E6E6;" width="15.453" height="216.338"/>
	<rect x="300.298" y="194.189" style="fill:#E0E6E6;" width="15.453" height="216.338"/>
	<rect x="147.316" y="347.171" style="fill:#E0E6E6;" width="216.338" height="15.453"/>
	<rect x="147.316" y="242.093" style="fill:#E0E6E6;" width="216.338" height="15.453"/>
</g>
<g>
	<path style="fill:#7CA1D8;" d="M506.791,392.184l-34.968-22.864v52.539l34.968-22.864
		C509.247,397.389,509.247,393.79,506.791,392.184z"/>
	<path style="fill:#7CA1D8;" d="M471.823,404.268h-30.905c-4.268,0-7.726-3.459-7.726-7.726s3.458-7.726,7.726-7.726h30.905
		c4.268,0,7.726,3.459,7.726,7.726S476.091,404.268,471.823,404.268z"/>
	<path style="fill:#7CA1D8;" d="M419.284,403.831h-5.151c-4.268,0-7.726-3.459-7.726-7.726c0-4.267,3.458-7.726,7.726-7.726h5.151
		c4.268,0,7.726,3.459,7.726,7.726C427.01,400.372,423.552,403.831,419.284,403.831z"/>
</g>
<path style="fill:#EAB430;" d="M386.318,146.286h-73.143c-4.268,0-7.726-3.459-7.726-7.726c0-4.267,3.458-7.726,7.726-7.726h73.143
	c4.268,0,7.726,3.459,7.726,7.726C394.044,142.826,390.586,146.286,386.318,146.286z"/>
<path style="fill:#7CA1D8;" d="M445.038,146.286h-29.875c-4.268,0-7.726-3.459-7.726-7.726c0-4.267,3.458-7.726,7.726-7.726h29.875
	c4.268,0,7.726,3.459,7.726,7.726C452.765,142.826,449.306,146.286,445.038,146.286z"/>
<path style="fill:#EAB430;" d="M445.038,176.161h-20.604c-4.268,0-7.726-3.459-7.726-7.726s3.458-7.726,7.726-7.726h20.604
	c4.268,0,7.726,3.459,7.726,7.726S449.306,176.161,445.038,176.161z"/>
<path style="fill:#FF395E;" d="M445.038,206.036h-32.966c-4.268,0-7.726-3.459-7.726-7.726c0-4.267,3.458-7.726,7.726-7.726h32.966
	c4.268,0,7.726,3.459,7.726,7.726C452.765,202.577,449.306,206.036,445.038,206.036z"/>
<polygon style="fill:#F3D064;" points="512,127.227 503.759,147.831 512,168.435 466.672,168.435 466.672,127.227 "/>
<path style="fill:#7CA1D8;" d="M257.03,150.849v12.506c0,2.38-1.556,4.368-3.698,5.079h-37.354c1.659-3.42,2.596-7.273,2.596-11.332
	c0-14.32-11.61-25.93-25.93-25.93c-14.32,0-25.93,11.61-25.93,25.93c0,4.059,0.937,7.912,2.596,11.332h-31.369
	c-1.04,0-2.05,0.103-3.039,0.288h-1.277c-2.967,0-5.367-2.4-5.367-5.367v-12.506c0-2.967,2.4-5.367,5.367-5.367h7.18
	c2.308,0,4.378-1.473,5.089-3.667c0.783-2.411,1.751-4.729,2.874-6.964c1.051-2.05,0.628-4.553-0.999-6.181l-5.079-5.079
	c-2.091-2.091-2.091-5.501,0-7.592l8.849-8.849c2.091-2.091,5.501-2.091,7.592,0l5.079,5.079c1.628,1.628,4.131,2.05,6.181,0.999
	c2.235-1.123,4.553-2.091,6.964-2.874c2.194-0.711,3.667-2.781,3.667-5.089v-7.18c0-2.967,2.4-5.367,5.367-5.367h12.506
	c2.967,0,5.367,2.4,5.367,5.367v7.18c0,2.308,1.473,4.378,3.667,5.089c2.411,0.783,4.729,1.751,6.964,2.874
	c2.05,1.051,4.553,0.628,6.181-0.999l5.079-5.079c2.091-2.091,5.501-2.091,7.592,0l8.849,8.849c2.091,2.091,2.091,5.501,0,7.592
	l-5.079,5.079c-1.628,1.628-2.05,4.131-0.999,6.181c1.123,2.235,2.091,4.553,2.874,6.964c0.711,2.194,2.781,3.667,5.089,3.667h7.18
	C254.63,145.482,257.03,147.883,257.03,150.849z"/>
<g>
</g>
<g>
</g>
<g>
</g>
<g>
</g>
<g>
</g>
<g>
</g>
<g>
</g>
<g>
</g>
<g>
</g>
<g>
</g>
<g>
</g>
<g>
</g>
<g>
</g>
<g>
</g>
<g>
</g>
</svg>
