<svg id="Repair_Service" height="512" viewBox="0 0 64 64" width="512" xmlns="http://www.w3.org/2000/svg" data-name="Repair Service"><path d="m3 5h58v54h-58z" fill="#91d1f5"/><rect fill="#ffc740" height="32" rx="2" width="34" x="15" y="20"/><path d="m20.1 27.1 4 4 2.121-.707.708-2.121-4-4a5.991 5.991 0 0 1 8.578 5.486 3.932 3.932 0 0 0 1.164 2.842l9.815 9.815a3 3 0 0 1 0 4.242 3 3 0 0 1 -4.243 0l-9.807-9.807a4.064 4.064 0 0 0 -2.9-1.167 5.99 5.99 0 0 1 -5.436-8.583z" fill="#d8d7da"/><path d="m38.657 23.343a3 3 0 0 1 3 3v11a0 0 0 0 1 0 0h-6a0 0 0 0 1 0 0v-11a3 3 0 0 1 3-3z" fill="#8cc63e" transform="matrix(.707 .707 -.707 .707 32.778 -18.447)"/><path d="m28.757 43.071 6.364-6.364-2.828-2.828-6.364 6.364h-1.414l-3.536 4.949 2.829 2.829 4.949-3.536z" fill="#e9e9ea"/><path d="m3 5h58v8h-58z" fill="#006ca9"/><path d="m6 8h2v2h-2z" fill="#ec455a"/><path d="m10 8h2v2h-2z" fill="#ffc740"/><path d="m14 8h2v2h-2z" fill="#8cc63e"/></svg>