<svg id="Capa_1" enable-background="new 0 0 510 510" height="512" viewBox="0 0 510 510" width="512" xmlns="http://www.w3.org/2000/svg"><g><g><path d="m204.2 390c-1.1 3.3-18.9 56.7-20 60l35.4 9 35.4-9 11.7-30-11.7-30-25.4-11.7z" fill="#3f4a4a"/><path d="m305.8 390-25.4-11.7-25.4 11.7v60l35.4 9 35.4-9c-1.1-3.3-18.9-56.7-20-60z" fill="#2d2d2d"/><path d="m0 30v173.8l194 6.9 61-81.9 11.7-48.8-11.7-50c-7.2 0-247.8 0-255 0z" fill="#beebfa"/><path d="m390 30c-16.3 0-118.6 0-135 0v98.8l135 105 10-68.8z" fill="#7ed8f6"/><path d="m150 450v30h105l10.3-15-10.3-15c-20.3 0-79.7 0-105 0z" fill="#55696e"/><path d="m360 480c0-10.5 0-19.5 0-30-11.2 0-94.1 0-105 0v30z" fill="#3f4a4a"/><path d="m195 188.8 26 41.9 34 18.1 10.3-58.5-10.3-61.5c-7.3 7.3-52.7 52.7-60 60z" fill="#00cc76"/><path d="m390 300 15-30-15-36.2c-32.3-32.3-101.2-101.2-120-120-5.2 5.2-9.8 9.8-15 15v120l51.2 51.2 38.8 15z" fill="#009986"/><path d="m105 98.8c-7.1 7.1-97.9 97.9-105 105v96.2l120 15 135-15 7.7-24-7.7-27.2c-36.3-36.4-116.4-116.4-150-150z" fill="#a5e887"/><path d="m255 248.8v51.2l30 15 21.2-15c-13.9-13.9-43.1-43.1-51.2-51.2z" fill="#00cc76"/><path d="m390 165 60 9.3 60-9.3c0-18.4 0-56.8 0-67.5l-60-10.2-60 10.2z" fill="#ffd321"/><path d="m390 300 60 15 60-15c0-18.4 0-56.8 0-67.5l-60-7.2-60 7.2z" fill="#4895ff"/><path d="m390 97.5h120c0-18.4 0-56.8 0-67.5-14.5 0-105.4 0-120 0z" fill="#ff415b"/><path d="m390 232.5h120c0-18.4 0-56.8 0-67.5-14.5 0-105.4 0-120 0z" fill="#ff415b"/><path d="m0 300v90h255l15.5-45-15.5-45c-7.2 0-247.8 0-255 0z" fill="#55696e"/><path d="m510 390c0-10.9 0-79 0-90-7.2 0-247.8 0-255 0v90z" fill="#3f4a4a"/></g><path d="m179.7 89.7h30.7v30.7h-30.7z" fill="#ffef4a"/></g></svg>