<svg id="Capa_1" enable-background="new 0 0 512 512" height="512" viewBox="0 0 512 512" width="512" xmlns="http://www.w3.org/2000/svg"><g><g><path d="m278.193 325.837h118.475v-321.347c0-2.48-2.01-4.49-4.49-4.49h-360.924c-2.48 0-4.49 2.01-4.49 4.49v437.317c0 2.48 2.01 4.49 4.49 4.49h246.939z" fill="#eaf6ff"/><g><path d="m79.684 441.807v-437.317c0-2.479 2.01-4.49 4.49-4.49h-52.92c-2.48 0-4.49 2.01-4.49 4.49v437.317c0 2.48 2.01 4.49 4.49 4.49h52.921c-2.48 0-4.491-2.01-4.491-4.49z" fill="#d8ecfe"/></g><path d="m259.959 48.74-1-2.167h-180.416c-2.761 0-5 2.239-5 5v79.46c0 2.761 2.239 5 5 5h180.416l1-2.297z" fill="#46cc8d"/><path d="m115 131.033v-79.46c0-2.761 2.239-5 5-5h-41.457c-2.761 0-5 2.239-5 5v79.46c0 2.761 2.239 5 5 5h41.457c-2.761 0-5-2.238-5-5z" fill="#08b865"/><g><g><path d="m81.043 167.194h112.579v94.486h-112.579z" fill="#fff"/></g><g><path d="m81.043 167.194h32.139v94.486h-32.139z" fill="#eaf6ff"/></g><path d="m278.193 325.837h71.696v-36.501c0-2.761-2.239-5-5-5h-266.346c-2.761 0-5 2.239-5 5v46.212c0 2.761 2.239 5 5 5h199.65z" fill="#fe646f"/><path d="m115 335.547v-46.212c0-2.761 2.239-5 5-5h-41.457c-2.761 0-5 2.239-5 5v46.212c0 2.761 2.239 5 5 5h41.457c-2.761 0-5-2.238-5-5z" fill="#fd4755"/><g><path d="m344.888 136.033h-85.93v-89.46h85.93c2.761 0 5 2.239 5 5v79.46c0 2.762-2.238 5-5 5z" fill="#0593fc"/></g><g><path d="m258.959 46.573h31.672v89.461h-31.672z" fill="#0182fc"/></g><path d="m193.623 159.694h-112.58c-4.142 0-7.5 3.358-7.5 7.5v94.486c0 4.142 3.358 7.5 7.5 7.5h112.58c4.142 0 7.5-3.358 7.5-7.5v-94.486c0-4.142-3.358-7.5-7.5-7.5zm-20.603 15-84.477 70.901v-70.901zm-71.375 79.486 84.477-70.901v70.901z" fill="#8db3df"/><g fill="#8db3df"><path d="m278.193 392.224h-54.415c-4.142 0-7.5 3.358-7.5 7.5s3.358 7.5 7.5 7.5h54.415z"/><path d="m278.193 360.729h-54.415c-4.142 0-7.5 3.358-7.5 7.5s3.358 7.5 7.5 7.5h54.415z"/></g><g><g><path d="m199.654 407.224h-118.611c-4.142 0-7.5-3.358-7.5-7.5s3.358-7.5 7.5-7.5h118.61c4.142 0 7.5 3.358 7.5 7.5s-3.357 7.5-7.499 7.5z" fill="#8db3df"/></g><g><path d="m199.654 375.729h-118.611c-4.142 0-7.5-3.358-7.5-7.5s3.358-7.5 7.5-7.5h118.61c4.142 0 7.5 3.358 7.5 7.5s-3.357 7.5-7.499 7.5z" fill="#8db3df"/></g></g><g><g><path d="m342.388 269.18h-118.61c-4.142 0-7.5-3.358-7.5-7.5s3.358-7.5 7.5-7.5h118.611c4.143 0 7.5 3.358 7.5 7.5s-3.358 7.5-7.501 7.5z" fill="#8db3df"/></g><g><path d="m342.388 237.685h-118.61c-4.142 0-7.5-3.358-7.5-7.5s3.358-7.5 7.5-7.5h118.611c4.143 0 7.5 3.358 7.5 7.5s-3.358 7.5-7.501 7.5z" fill="#8db3df"/></g><g><path d="m342.388 206.189h-118.61c-4.142 0-7.5-3.358-7.5-7.5s3.358-7.5 7.5-7.5h118.611c4.143 0 7.5 3.358 7.5 7.5s-3.358 7.5-7.501 7.5z" fill="#8db3df"/></g><g><path d="m342.388 174.694h-118.61c-4.142 0-7.5-3.358-7.5-7.5s3.358-7.5 7.5-7.5h118.611c4.143 0 7.5 3.358 7.5 7.5s-3.358 7.5-7.501 7.5z" fill="#8db3df"/></g></g></g></g><path d="m447.026 350.099c-2.206 0-4-1.794-4-4v-20.262h-140.588v20.262c0 2.206-1.794 4-4 4h-20.246v119.691h20.246c2.206 0 4 1.794 4 4v19.67h140.588v-19.67c0-2.206 1.794-4 4-4h19.46v-119.691z" fill="#fed402"/><path d="m302.438 346.099c0 2.206-1.794 4-4 4h-20.246v119.691h20.246c2.206 0 4 1.794 4 4v19.67h21.381v-167.623h-21.381z" fill="#fac600"/><g fill="#647fa0"><path d="m270.693 350.099h15v119.691h-15z"/><path d="m302.438 318.337h140.588v15h-140.588z"/><path d="m458.986 350.099h15v119.691h-15z"/><path d="m302.438 485.96h140.588v15h-140.588z"/></g><g><path d="m316.05 362.405h112.579v94.486h-112.579z" fill="#fff"/></g><g><path d="m316.05 362.405h31.619v94.486h-31.619z" fill="#eaf6ff"/></g><g><path d="m298.438 512h-33.21c-2.761 0-5-2.239-5-5v-33.21c0-2.761 2.239-5 5-5h33.21c2.761 0 5 2.239 5 5v33.21c0 2.761-2.238 5-5 5z" fill="#8db3df"/></g><g><path d="m480.236 351.099h-33.21c-2.761 0-5-2.239-5-5v-33.21c0-2.761 2.239-5 5-5h33.21c2.761 0 5 2.239 5 5v33.21c0 2.761-2.238 5-5 5z" fill="#8db3df"/></g><path d="m462.798 346.099v-33.21c0-2.761 2.239-5 5-5h-20.772c-2.761 0-5 2.239-5 5v33.21c0 2.761 2.239 5 5 5h20.772c-2.762 0-5-2.239-5-5z" fill="#799fca"/><g><path d="m298.438 351.099h-33.21c-2.761 0-5-2.239-5-5v-33.21c0-2.761 2.239-5 5-5h33.21c2.761 0 5 2.239 5 5v33.21c0 2.761-2.238 5-5 5z" fill="#8db3df"/></g><path d="m281 346.099v-33.21c0-2.761 2.239-5 5-5h-20.772c-2.761 0-5 2.239-5 5v33.21c0 2.761 2.239 5 5 5h20.772c-2.761 0-5-2.239-5-5z" fill="#799fca"/><g><path d="m480.236 512h-33.21c-2.761 0-5-2.239-5-5v-33.21c0-2.761 2.239-5 5-5h33.21c2.761 0 5 2.239 5 5v33.21c0 2.761-2.238 5-5 5z" fill="#8db3df"/></g><path d="m462.798 507v-33.21c0-2.761 2.239-5 5-5h-20.772c-2.761 0-5 2.239-5 5v33.21c0 2.761 2.239 5 5 5h20.772c-2.762 0-5-2.239-5-5z" fill="#799fca"/><path d="m281 507v-33.21c0-2.761 2.239-5 5-5h-20.772c-2.761 0-5 2.239-5 5v33.21c0 2.761 2.239 5 5 5h20.772c-2.761 0-5-2.239-5-5z" fill="#799fca"/><path d="m428.629 354.905h-112.579c-4.143 0-7.5 3.358-7.5 7.5v94.486c0 4.142 3.357 7.5 7.5 7.5h112.579c4.143 0 7.5-3.358 7.5-7.5v-94.486c0-4.142-3.358-7.5-7.5-7.5zm-20.602 15-84.477 70.901v-70.901zm-71.375 79.487 84.477-70.901v70.901z" fill="#647fa0"/></g></svg>