<svg id="Layer_1" enable-background="new 0 0 512 512" height="512" viewBox="0 0 512 512" width="512" xmlns="http://www.w3.org/2000/svg"><g><path d="m209.796 408.492v30.375c0 11.616-5.566 22.402-14.708 28.5l-22.082 14.73h165.988l-22.082-14.73c-9.142-6.098-14.708-16.884-14.708-28.5v-30.375c-30.386 0-62.022 0-92.408 0z" fill="#bed8fb"/><path d="m209.796 408.492v30.375c0 11.616-5.566 22.402-14.708 28.5l-22.082 14.73h53.576l.466-.311c9.142-6.098 14.708-16.884 14.708-28.5v-21.029c0-5.162 4.185-9.346 9.347-9.346h51.102v-14.419z" fill="#9dc6fb"/><path d="m354.446 481.031h-196.892c-5.482 0-9.927 4.444-9.927 9.927v11.115c0 5.483 4.444 9.927 9.927 9.927h196.893c5.482 0 9.927-4.444 9.927-9.927v-11.115c-.001-5.483-4.445-9.927-9.928-9.927z" fill="#dfebfa"/><path d="m202.643 502.073v-11.115c0-5.483 4.444-9.927 9.927-9.927h-55.016c-5.482 0-9.927 4.444-9.927 9.927v11.115c0 5.483 4.444 9.927 9.927 9.927h55.016c-5.483 0-9.927-4.444-9.927-9.927z" fill="#bed8fb"/><g><g><path d="m474.084 56.754h-436.168c-15.776 0-28.61 12.834-28.61 28.61v295.827c0 15.776 12.834 28.61 28.61 28.61h436.169c15.776 0 28.61-12.834 28.61-28.61v-295.827c0-15.775-12.835-28.61-28.611-28.61z" fill="#695d67"/></g></g><path d="m42.399 381.192v-295.828c0-15.776 12.834-28.61 28.61-28.61h-33.093c-15.776 0-28.61 12.834-28.61 28.61v295.827c0 15.776 12.834 28.61 28.61 28.61h33.093c-15.776.001-28.61-12.833-28.61-28.609z" fill="#554e56"/><path d="m467.609 87.723c-17.857 0-404.091 0-423.218 0-2.273 0-4.116 1.843-4.116 4.116v282.876c0 2.274 1.843 4.117 4.116 4.117h423.218c2.273 0 4.116-1.843 4.116-4.117v-282.875c0-2.274-1.843-4.117-4.116-4.117z" fill="#80b4fb"/><path d="m70.059 374.716-.002-282.876c0-2.273 1.843-4.116 4.116-4.116h-29.782c-2.274 0-4.116 1.843-4.116 4.116v282.876c0 2.274 1.843 4.117 4.116 4.117h29.784c-2.274 0-4.116-1.843-4.116-4.117z" fill="#0290f4"/><path d="m88.133 34.759h335.734v344.074h-335.734z" fill="#dfebfa"/><path d="m88.133 34.759h44.707v344.074h-44.707z" fill="#bed8fb"/><path d="m419.751 0h-288.971v36.819h293.087c0-17.233 0-29.237 0-32.703 0-2.273-1.843-4.116-4.116-4.116z" fill="#80b4fb"/><path d="m371.041 146.472h-230.082c-7.205 0-13.1 5.895-13.1 13.1v92.429c0 7.205 5.895 13.1 13.1 13.1h230.082c7.205 0 13.1-5.895 13.1-13.1v-92.429c0-7.204-5.895-13.1-13.1-13.1z" fill="#ff656f"/><path d="m165.188 252.001v-92.429c0-7.205 5.895-13.1 13.1-13.1h-37.329c-7.205 0-13.1 5.895-13.1 13.1v92.429c0 7.205 5.895 13.1 13.1 13.1h37.329c-7.205.001-13.1-5.894-13.1-13.1z" fill="#ff4756"/><g fill="#dfebfa"><path d="m170.042 233.89c0 4.136-3.531 7.769-7.668 7.769-4.439 0-7.769-3.632-7.769-7.769 0-4.238 3.33-7.769 7.769-7.769 4.136 0 7.668 3.531 7.668 7.769z"/><path d="m201.822 181.021c-5.751 0-9.081 3.229-9.081 10.09v26.737c0 6.861 3.33 10.09 9.182 10.09 8.072 0 8.576-6.155 8.878-10.09.303-3.733 3.733-4.742 7.769-4.742 5.449 0 7.971 1.413 7.971 7.467 0 13.419-10.896 21.087-25.324 21.087-13.217 0-24.215-6.457-24.215-23.812v-26.738c0-17.354 10.997-23.812 24.215-23.812 14.428 0 25.324 7.265 25.324 20.079 0 6.054-2.522 7.465-7.87 7.465-4.237 0-7.668-1.11-7.87-4.742-.1-2.622-.403-9.079-8.979-9.079z"/><path d="m233.703 217.847v-26.737c0-17.354 10.796-23.812 24.719-23.812s24.82 6.457 24.82 23.812v26.737c0 17.354-10.897 23.812-24.82 23.812-13.924 0-24.719-6.457-24.719-23.812zm33.8-26.737c0-6.961-3.43-10.09-9.08-10.09s-8.98 3.128-8.98 10.09v26.737c0 6.962 3.33 10.09 8.98 10.09s9.08-3.127 9.08-10.09z"/><path d="m328.844 214.922c-1.312 2.219-3.33 2.925-5.247 2.925-1.816 0-3.733-.606-4.944-2.925l-9.585-17.556v38.844c0 3.23-3.935 4.843-7.87 4.843s-7.87-1.614-7.87-4.843v-61.041c0-5.751 3.935-7.87 7.87-7.87 5.65 0 8.072.606 12.208 7.87l10.394 18.161 10.392-18.161c4.137-7.265 6.558-7.87 12.209-7.87 4.036 0 7.87 2.119 7.87 7.87v61.041c0 3.23-3.935 4.843-7.87 4.843s-7.87-1.614-7.87-4.843v-37.835z"/></g><path d="m132.84 0h-40.591c-2.273 0-4.116 1.843-4.116 4.116v32.702h44.707z" fill="#ff4756"/></g></svg>